#N canvas 142 135 2465 1159 16;
#X obj 43 24 inlet index;
#X obj 382 24 inlet a_prev_0;
#X obj 700 24 inlet a_prev_1;
#X obj 1018 24 inlet a_prev_2;
#X obj 361 90 f;
#X obj 679 210 f;
#X obj 997 360 f;
#X obj 520 181 nn.read_array;
#X msg 520 153 0;
#X obj 838 301 nn.read_array;
#X msg 838 273 1;
#X obj 1156 441 nn.read_array;
#X msg 1156 413 2;
#X obj 1633 688 nn.read_array;
#X msg 1633 660 0;
#X obj 1122 1088 outlet activation;
#X obj 1450 1088 outlet z;
#X obj 954 1033 nn.cache_model_forward, f 66;
#X msg 1952 306 1;
#X msg 2013 306 2;
#X msg 2074 306 3;
#X obj 1952 278 select relu tanh sigmoid linear;
#X msg 2135 306 4;
#X msg 2197 306 0;
#X obj 1952 250 list store \$5;
#X obj 44 1088 outlet index;
#X obj 2122 24 inlet dollar_zero;
#N canvas 535 584 554 471 dollar_zero_args 0;
#X obj 96 37 inlet dollar_zero;
#X obj 148 345 d_0;
#X obj 221 345 d_0;
#X obj 294 345 d_0;
#X obj 368 345 d_0;
#X obj 148 171 list store \$1;
#X obj 221 211 list store \$2;
#X obj 294 251 list store \$3;
#X obj 368 292 list store \$4;
#X obj 96 93 t b f f f f, f 37;
#X obj 148 373 outlet;
#X obj 221 373 outlet;
#X obj 294 373 outlet;
#X obj 368 373 outlet;
#X obj 35 305 t b b b b;
#X connect 0 0 9 0;
#X connect 1 0 10 0;
#X connect 2 0 11 0;
#X connect 3 0 12 0;
#X connect 4 0 13 0;
#X connect 5 0 1 0;
#X connect 6 0 2 0;
#X connect 7 0 3 0;
#X connect 8 0 4 0;
#X connect 9 0 14 0;
#X connect 9 1 1 1;
#X connect 9 2 2 1;
#X connect 9 3 3 1;
#X connect 9 4 4 1;
#X connect 14 0 5 0;
#X connect 14 1 6 0;
#X connect 14 2 7 0;
#X connect 14 3 8 0;
#X restore 2122 52 pd dollar_zero_args;
#X obj 2271 83 s \$0_nn.neuron_z_arr;
#X obj 2221 113 s \$0_nn.neuron_a_arr;
#X obj 2171 143 s \$0_nn.neuron_b_arr;
#X obj 2122 173 s \$0_nn.neuron_w_arr;
#X obj 1479 1003 r \$0_nn.neuron_z_arr;
#X obj 1347 975 r \$0_nn.neuron_a_arr;
#X obj 1257 413 r \$0_nn.neuron_w_arr;
#X obj 939 273 r \$0_nn.neuron_w_arr;
#X obj 621 153 r \$0_nn.neuron_w_arr;
#X obj 1734 660 r \$0_nn.neuron_b_arr;
#X obj 2074 378 s \$0_nn.neuron_activation;
#X obj 1085 795 +;
#X obj 499 209 *;
#X obj 817 329 *;
#X obj 1135 469 *;
#X obj 1085 608 +;
#X obj 796 447 +;
#X obj 1085 858 t f f f, f 46;
#X obj 1085 947 nn.activation_functions;
#X obj 1266 919 r \$0_nn.neuron_activation;
#X obj 1792 118 s \$0_nn.neuron_negative_slope;
#X obj 1175 891 r \$0_nn.neuron_negative_slope;
#X obj 1085 980 t f f;
#X obj 1792 90 f \$6;
#X text 61 278 // args \; \$1: symbol weights (1 \, 4) \; \$2: symbol bias (1 \, 1) \; \$3: symbol activations (1 \, m) \; \$4: symbol linear outputs (1 \, m) \; \$5: symbol activation type (relu \, tanh \, sigmoid \, linear) \; \$6: float negative_slope (for Leaky ReLU) \; inlets \; 1: float index \; 2: float a_prev_0 \; 3: float a_prev_1 \; 4: float a_prev_2 \; 5: float a_prev_3 \; 5: float \$0 \;;
#X obj 1315 535 f;
#X obj 1336 24 inlet a_prev_3;
#X obj 1391 561 nn.read_array;
#X obj 1492 533 r \$0_nn.neuron_w_arr;
#X obj 1370 589 *;
#X msg 1391 533 3;
#X obj 43 57 t f f b b b b b b b b b b b, f 239;
#X obj 1085 666 +;
#X obj 87 122 cnv 23 156 26 empty empty n_4 6 12 0 16 #dfdfdf #202020 0;
#X connect 0 0 59 0;
#X connect 1 0 4 1;
#X connect 2 0 5 1;
#X connect 3 0 6 1;
#X connect 4 0 40 0;
#X connect 5 0 41 0;
#X connect 6 0 42 0;
#X connect 7 0 40 1;
#X connect 8 0 7 0;
#X connect 9 0 41 1;
#X connect 10 0 9 0;
#X connect 11 0 42 1;
#X connect 12 0 11 0;
#X connect 13 0 39 1;
#X connect 14 0 13 0;
#X connect 18 0 38 0;
#X connect 19 0 38 0;
#X connect 20 0 38 0;
#X connect 21 0 18 0;
#X connect 21 1 19 0;
#X connect 21 2 20 0;
#X connect 21 3 22 0;
#X connect 21 4 23 0;
#X connect 22 0 38 0;
#X connect 23 0 38 0;
#X connect 24 0 21 0;
#X connect 26 0 27 0;
#X connect 27 0 31 0;
#X connect 27 1 30 0;
#X connect 27 2 29 0;
#X connect 27 3 28 0;
#X connect 32 0 17 4;
#X connect 33 0 17 3;
#X connect 34 0 11 1;
#X connect 35 0 9 1;
#X connect 36 0 7 1;
#X connect 37 0 13 1;
#X connect 39 0 45 0;
#X connect 40 0 44 0;
#X connect 41 0 44 1;
#X connect 42 0 43 1;
#X connect 43 0 60 0;
#X connect 44 0 43 0;
#X connect 45 0 46 0;
#X connect 45 1 17 2;
#X connect 45 2 16 0;
#X connect 46 0 50 0;
#X connect 47 0 46 2;
#X connect 49 0 46 1;
#X connect 50 0 17 1;
#X connect 50 1 15 0;
#X connect 51 0 48 0;
#X connect 53 0 57 0;
#X connect 54 0 53 1;
#X connect 55 0 57 1;
#X connect 56 0 55 1;
#X connect 57 0 60 1;
#X connect 58 0 55 0;
#X connect 59 0 25 0;
#X connect 59 1 17 0;
#X connect 59 2 4 0;
#X connect 59 3 8 0;
#X connect 59 4 5 0;
#X connect 59 5 10 0;
#X connect 59 6 6 0;
#X connect 59 7 12 0;
#X connect 59 8 53 0;
#X connect 59 9 58 0;
#X connect 59 10 14 0;
#X connect 59 11 51 0;
#X connect 59 12 24 0;
#X connect 60 0 39 0;
#X coords 0 1159 1 1158 160 30 0;
