#N canvas 180 389 1171 1013 16;
#X obj 34 173 inlet bang;
#X obj 499 303 array size;
#X obj 478 498 array get, f 13;
#X obj 478 654 *;
#X obj 478 932 array set, f 22;
#X obj 34 932 outlet done;
#X obj 319 498 array get;
#X msg 352 464 1;
#X obj 499 203 t b b s s, f 26;
#X msg 528 465 1;
#X obj 188 174 inlet n_prev;
#X obj 759 498 array get;
#X msg 793 465 1;
#X obj 478 409 t f f f, f 32;
#X obj 478 789 +;
#X obj 478 348 f;
#X obj 775 201 t s b s;
#X obj 478 376 nnb.range;
#X obj 34 201 t b b, f 10;
#X obj 351 201 t b s;
#X obj 351 173 inlet s_w;
#X obj 499 173 inlet s_dz;
#X obj 775 173 inlet s_da_prev;
#X text 14 6 // dA^[l-1] = W^[l]T . dZ^[l] \; Multiplies a dz array by a weight and adds the results to the previously computed da values.;
#X connect 0 0 18 0;
#X connect 1 0 15 1;
#X connect 2 0 3 0;
#X connect 3 0 14 0;
#X connect 6 0 3 1;
#X connect 7 0 6 1;
#X connect 8 0 1 0;
#X connect 8 1 9 0;
#X connect 8 2 1 1;
#X connect 8 3 2 2;
#X connect 9 0 2 1;
#X connect 10 0 6 0;
#X connect 11 0 14 1;
#X connect 12 0 11 1;
#X connect 13 0 2 0;
#X connect 13 1 4 1;
#X connect 13 2 11 0;
#X connect 14 0 4 0;
#X connect 15 0 17 0;
#X connect 16 0 4 2;
#X connect 16 1 12 0;
#X connect 16 2 11 2;
#X connect 17 0 13 0;
#X connect 18 0 5 0;
#X connect 18 1 15 0;
#X connect 19 0 7 0;
#X connect 19 1 6 2;
#X connect 20 0 19 0;
#X connect 21 0 8 0;
#X connect 22 0 16 0;
