#N canvas 2608 660 450 300 16;
#X obj 65 984 outlet index;
#X obj 1614 446 nn.read_array;
#X msg 1614 414 0;
#X obj 532 360 *;
#X obj 813 674 +;
#X obj 850 984 outlet activation;
#X obj 602 929 nn.cache_model_forward, f 106;
#X obj 452 257 f;
#X obj 645 290 nn.read_array;
#X msg 645 256 0;
#X obj 813 814 nn.activation_functions, f 53;
#X obj 813 842 t f f;
#X obj 1984 89 inlet activation_type;
#X obj 65 89 inlet index;
#X obj 1385 89 inlet w_arr;
#X obj 1499 89 inlet b_arr;
#X obj 1811 89 inlet negative_slope;
#X obj 1608 89 inlet a_arr;
#X obj 1710 89 inlet z_arr;
#X obj 1811 117 s \$0_leak;
#X obj 1023 781 r \$0_leak;
#X obj 1984 117 s \$0_activation_type;
#X obj 1234 781 r \$0_activation_type;
#X obj 813 726 t f f, f 16;
#X obj 1385 117 s \$0_w_arr;
#X obj 1499 117 s \$0_b_arr;
#X obj 746 257 r \$0_w_arr;
#X obj 65 154 t f f b b b b b b b, f 194;
#X obj 1715 413 r \$0_b_arr;
#X obj 1608 117 s \$0_a_arr;
#X obj 1235 896 r \$0_a_arr;
#X obj 1710 117 s \$0_z_arr;
#X obj 1447 896 r \$0_z_arr;
#X obj 473 89 inlet a_prev_0;
#X obj 860 89 inlet a_prev_1;
#X obj 1247 89 inlet a_prev_2;
#X obj 839 217 f;
#X obj 1226 187 f;
#X obj 1033 251 nn.read_array;
#X obj 1134 218 r \$0_w_arr;
#X msg 1033 217 1;
#X obj 1420 221 nn.read_array;
#X obj 1521 188 r \$0_w_arr;
#X msg 1420 187 2;
#X obj 1328 284 *;
#X obj 929 314 *;
#X obj 929 417 +;
#X obj 813 543 +;
#X connect 1 0 4 1;
#X connect 2 0 1 0;
#X connect 3 0 47 0;
#X connect 4 0 23 0;
#X connect 7 0 3 0;
#X connect 8 0 3 1;
#X connect 9 0 8 0;
#X connect 10 0 11 0;
#X connect 11 0 6 1;
#X connect 11 1 5 0;
#X connect 12 0 21 0;
#X connect 13 0 27 0;
#X connect 14 0 24 0;
#X connect 15 0 25 0;
#X connect 16 0 19 0;
#X connect 17 0 29 0;
#X connect 18 0 31 0;
#X connect 20 0 10 1;
#X connect 22 0 10 2;
#X connect 23 0 10 0;
#X connect 23 1 6 2;
#X connect 26 0 8 1;
#X connect 27 0 0 0;
#X connect 27 1 6 0;
#X connect 27 2 7 0;
#X connect 27 3 9 0;
#X connect 27 4 36 0;
#X connect 27 5 40 0;
#X connect 27 6 37 0;
#X connect 27 7 43 0;
#X connect 27 8 2 0;
#X connect 28 0 1 1;
#X connect 30 0 6 3;
#X connect 32 0 6 4;
#X connect 33 0 7 1;
#X connect 34 0 36 1;
#X connect 35 0 37 1;
#X connect 36 0 45 0;
#X connect 37 0 44 0;
#X connect 38 0 45 1;
#X connect 39 0 38 1;
#X connect 40 0 38 0;
#X connect 41 0 44 1;
#X connect 42 0 41 1;
#X connect 43 0 41 0;
#X connect 44 0 46 1;
#X connect 45 0 46 0;
#X connect 46 0 47 1;
#X connect 47 0 4 0;
