#N canvas 1772 70 1059 884 16;
#X obj 29 140 inlet bang;
#X obj 258 717 array set, f 82;
#X obj 29 717 outlet done;
#X obj 258 547 /;
#X obj 522 305 t b s s, f 18;
#X obj 522 355 array size;
#X obj 384 140 inlet s_dz;
#X obj 522 140 inlet s_a_prev;
#X obj 911 140 inlet s_dw;
#X obj 185 140 inlet column_number;
#X obj 106 404 nnb.element_wise_product, f 70;
#X text 16 7 // dW^[l] = 1/m . dZ^[l]A^[l-1]T \; Calculates dw for a single row and column of the weights matrix.;
#X obj 29 168 t b b, f 10;
#X connect 0 0 12 0;
#X connect 3 0 1 0;
#X connect 4 0 5 0;
#X connect 4 1 5 1;
#X connect 4 2 10 2;
#X connect 5 0 3 1;
#X connect 6 0 10 1;
#X connect 7 0 4 0;
#X connect 8 0 1 2;
#X connect 9 0 1 1;
#X connect 10 0 3 0;
#X connect 12 0 2 0;
#X connect 12 1 10 0;
