#N canvas 773 560 757 520 16;
#X obj 504 69 inlet dollar_zero;
#X msg 483 228 symbol \$1_\$2;
#X obj 483 147 f;
#X obj 131 147 f;
#X msg 297 370 symbol \$1_\$2;
#X obj 390 273 list prepend;
#X obj 297 342 list prepend;
#X obj 293 147 f;
#X obj 297 398 outlet symbol;
#X obj 314 69 inlet layer_number;
#X obj 152 69 inlet row_number;
#X msg 390 301 symbol \$1L-\$2;
#X text 20 14 // Returns the dollar_zero symbol for array of type: type at layer: layer_number \, row: row_number \;;
#X obj 19 69 inlet type;
#X obj 19 96 t b b b b, f 72;
#X obj 483 200 list append;
#X obj 592 147 list store \$1;
#X connect 0 0 2 1;
#X connect 1 0 5 1;
#X connect 2 0 15 0;
#X connect 3 0 6 0;
#X connect 4 0 8 0;
#X connect 5 0 11 0;
#X connect 6 0 4 0;
#X connect 7 0 5 0;
#X connect 9 0 7 1;
#X connect 10 0 3 1;
#X connect 11 0 6 1;
#X connect 13 0 14 0;
#X connect 14 0 3 0;
#X connect 14 1 7 0;
#X connect 14 2 2 0;
#X connect 14 3 16 0;
#X connect 15 0 1 0;
#X connect 16 0 15 1;
