#N canvas 199 218 1013 968 16;
#X obj 41 94 inlet bang;
#X obj 348 700 expr $f1 - ($f2 * $f3), f 57;
#X obj 369 215 array size;
#X msg 198 381 1;
#X obj 574 627 array get, f 14;
#X obj 348 627 array get, f 21;
#X obj 348 803 array set, f 30;
#X obj 348 452 t f f f, f 15;
#X obj 41 851 outlet done;
#X obj 198 414 t f f;
#X obj 801 98 inlet alpha;
#X obj 369 98 inlet s_param_arr;
#X obj 348 350 nnb.range;
#X obj 348 313 f;
#X obj 369 182 t b s s s, f 27;
#X obj 41 127 t b b b, f 20;
#X obj 683 98 inlet s_d_arr;
#X connect 0 0 15 0;
#X connect 1 0 6 0;
#X connect 2 0 13 1;
#X connect 3 0 9 0;
#X connect 4 0 1 1;
#X connect 5 0 1 0;
#X connect 7 0 5 0;
#X connect 7 1 4 0;
#X connect 7 2 6 1;
#X connect 9 0 5 1;
#X connect 9 1 4 1;
#X connect 10 0 1 2;
#X connect 11 0 14 0;
#X connect 12 0 7 0;
#X connect 13 0 12 0;
#X connect 14 0 2 0;
#X connect 14 1 2 1;
#X connect 14 2 5 2;
#X connect 14 3 6 2;
#X connect 15 0 8 0;
#X connect 15 1 13 0;
#X connect 15 2 3 0;
#X connect 16 0 4 2;
