#N canvas 446 503 1400 791 16;
#X obj 29 604 outlet index;
#X msg 986 224 1;
#X msg 1047 224 2;
#X msg 1108 224 3;
#X obj 986 175 select relu tanh sigmoid linear;
#X msg 1169 224 4;
#X msg 1231 224 0;
#X obj 986 604 outlet activation;
#X obj 308 28 inlet dollar_zero;
#X obj 165 28 inlet a_prev;
#N canvas 217 259 1810 899 neuron 0;
#X obj 65 794 outlet index;
#X obj 798 346 nn.read_array;
#X msg 798 314 0;
#X obj 431 314 *;
#X obj 575 484 +;
#X obj 613 794 outlet activation;
#X obj 365 739 nn.cache_model_forward, f 106;
#X obj 431 217 f;
#X obj 614 221 nn.read_array;
#X msg 614 187 0;
#X obj 576 624 nn.activation_functions, f 53;
#X obj 576 652 t f f;
#X obj 1554 89 inlet activation_type;
#X obj 452 89 inlet a_prev;
#X obj 65 89 inlet index;
#X obj 715 89 inlet w_arr;
#X obj 899 89 inlet b_arr;
#X obj 1351 89 inlet negative_slope;
#X obj 998 89 inlet a_arr;
#X obj 1210 89 inlet z_arr;
#X obj 1351 117 s \$0_leak;
#X obj 786 591 r \$0_leak;
#X obj 1554 117 s \$0_activation_type;
#X obj 997 591 r \$0_activation_type;
#X obj 65 154 t f f b b b, f 92;
#X obj 576 536 t f f, f 16;
#X connect 1 0 4 1;
#X connect 2 0 1 0;
#X connect 3 0 4 0;
#X connect 4 0 25 0;
#X connect 7 0 3 0;
#X connect 8 0 3 1;
#X connect 9 0 8 0;
#X connect 10 0 11 0;
#X connect 11 0 6 1;
#X connect 11 1 5 0;
#X connect 12 0 22 0;
#X connect 13 0 7 1;
#X connect 14 0 24 0;
#X connect 15 0 8 1;
#X connect 16 0 1 1;
#X connect 17 0 20 0;
#X connect 18 0 6 3;
#X connect 19 0 6 4;
#X connect 21 0 10 1;
#X connect 23 0 10 2;
#X connect 24 0 0 0;
#X connect 24 1 6 0;
#X connect 24 2 7 0;
#X connect 24 3 9 0;
#X connect 24 4 2 0;
#X connect 25 0 10 0;
#X connect 25 1 6 2;
#X restore 29 528 pd neuron;
#X f 120;
#X obj 29 28 inlet index;
#X obj 308 56 s \$0_ns;
#X obj 29 108 route float layer position leak activation, f 150;
#X obj 986 141 symbol;
#X obj 575 463 nnb.array_name a;
#X obj 712 493 nnb.array_name z;
#X obj 427 369 r \$0_ns;
#X obj 302 403 nnb.array_name w;
#X obj 439 433 nnb.array_name b;
#X obj 268 141 s \$0_l;
#X obj 507 141 s \$0_n;
#X obj 564 399 r \$0_ns;
#X obj 837 459 r \$0_ns;
#X obj 700 429 r \$0_ns;
#X obj 302 370 r \$0_n;
#X obj 364 370 r \$0_l;
#X obj 439 400 r \$0_n;
#X obj 501 400 r \$0_l;
#X obj 575 430 r \$0_n;
#X obj 637 430 r \$0_l;
#X obj 774 460 r \$0_l;
#X obj 712 460 r \$0_n;
#X connect 1 0 10 7;
#X connect 2 0 10 7;
#X connect 3 0 10 7;
#X connect 4 0 1 0;
#X connect 4 1 2 0;
#X connect 4 2 3 0;
#X connect 4 3 5 0;
#X connect 4 4 6 0;
#X connect 5 0 10 7;
#X connect 6 0 10 7;
#X connect 8 0 12 0;
#X connect 9 0 10 1;
#X connect 10 0 0 0;
#X connect 10 1 7 0;
#X connect 11 0 13 0;
#X connect 13 0 10 0;
#X connect 13 1 20 0;
#X connect 13 2 21 0;
#X connect 13 3 10 6;
#X connect 13 4 14 0;
#X connect 14 0 4 0;
#X connect 15 0 10 4;
#X connect 16 0 10 5;
#X connect 17 0 18 2;
#X connect 18 0 10 2;
#X connect 19 0 10 3;
#X connect 22 0 19 2;
#X connect 23 0 16 2;
#X connect 24 0 15 2;
#X connect 25 0 18 0;
#X connect 26 0 18 1;
#X connect 27 0 19 0;
#X connect 28 0 19 1;
#X connect 29 0 15 0;
#X connect 30 0 15 1;
#X connect 31 0 16 1;
#X connect 32 0 16 0;
