#N canvas 1773 279 1153 568 16;
#X obj 39 56 inlet bang;
#X obj 855 55 inlet dollar_zero;
#X obj 855 88 s \$0_ns;
#X obj 39 112 t b b;
#X obj 39 84 route bang num_outputs, f 53;
#X obj 249 119 s \$0_n;
#X obj 76 242 nnb.range;
#X obj 97 183 r \$0_n;
#X text 160 244 // for i in range(n);
#X obj 480 303 r \$0_ns;
#X obj 355 337 nnb.array_name a;
#X msg 417 303 0;
#X obj 634 337 nnb.label_name;
#X obj 743 303 r \$0_ns;
#X obj 1046 303 r \$0_ns;
#X msg 979 303 0;
#X obj 913 337 nnb.array_name dz;
#X obj 76 370 nnb.array_subtract, f 105;
#X obj 76 270 t b f b f f b, f 113;
#X obj 39 403 outlet done;
#X obj 76 214 f 1;
#X connect 0 0 4 0;
#X connect 1 0 2 0;
#X connect 3 0 19 0;
#X connect 3 1 20 0;
#X connect 4 0 3 0;
#X connect 4 1 5 0;
#X connect 6 0 18 0;
#X connect 7 0 20 1;
#X connect 9 0 10 2;
#X connect 10 0 17 1;
#X connect 11 0 10 1;
#X connect 12 0 17 2;
#X connect 13 0 12 1;
#X connect 14 0 16 2;
#X connect 15 0 16 1;
#X connect 16 0 17 3;
#X connect 18 0 17 0;
#X connect 18 1 10 0;
#X connect 18 2 11 0;
#X connect 18 3 12 0;
#X connect 18 4 16 0;
#X connect 18 5 15 0;
#X connect 20 0 6 0;
