#N canvas 1693 106 1557 1284 16;
#X obj 58 69 inlet;
#X obj 1141 66 inlet dollar_zero;
#X obj 58 130 t b b;
#X obj 703 135 s \$0_alpha;
#X obj 1141 99 s \$0_ns;
#X obj 273 135 s \$0_l;
#X obj 488 135 s \$0_n;
#X obj 116 197 r \$0_n;
#X obj 95 230 f;
#X obj 95 258 nnb.range;
#X obj 95 385 nnb.update_param, f 80;
#X obj 732 352 r \$0_alpha;
#X obj 307 352 nnb.array_name w;
#X obj 369 319 r \$0_l;
#X obj 432 319 r \$0_ns;
#X obj 95 286 t b f f, f 53;
#X obj 585 319 r \$0_l;
#X obj 652 319 r \$0_ns;
#X obj 519 352 nnb.array_name dw;
#X obj 58 102 route bang layer_number num_units alpha, f 108;
#X obj 58 428 t b b;
#X obj 116 461 r \$0_n;
#X obj 95 494 f;
#X obj 95 522 nnb.range;
#X obj 95 649 nnb.update_param, f 80;
#X obj 732 616 r \$0_alpha;
#X obj 369 583 r \$0_l;
#X obj 432 583 r \$0_ns;
#X obj 95 550 t b f f, f 53;
#X obj 585 583 r \$0_l;
#X obj 652 583 r \$0_ns;
#X obj 307 616 nnb.array_name b;
#X obj 519 616 nnb.array_name db;
#X obj 58 712 outlet done;
#X connect 0 0 19 0;
#X connect 1 0 4 0;
#X connect 2 0 20 0;
#X connect 2 1 8 0;
#X connect 7 0 8 1;
#X connect 8 0 9 0;
#X connect 9 0 15 0;
#X connect 11 0 10 3;
#X connect 12 0 10 1;
#X connect 13 0 12 1;
#X connect 14 0 12 2;
#X connect 15 0 10 0;
#X connect 15 1 12 0;
#X connect 15 2 18 0;
#X connect 16 0 18 1;
#X connect 17 0 18 2;
#X connect 18 0 10 2;
#X connect 19 0 2 0;
#X connect 19 1 5 0;
#X connect 19 2 6 0;
#X connect 19 3 3 0;
#X connect 20 0 33 0;
#X connect 20 1 22 0;
#X connect 21 0 22 1;
#X connect 22 0 23 0;
#X connect 23 0 28 0;
#X connect 25 0 24 3;
#X connect 26 0 31 1;
#X connect 27 0 31 2;
#X connect 28 0 24 0;
#X connect 28 1 31 0;
#X connect 28 2 32 0;
#X connect 29 0 32 1;
#X connect 30 0 32 2;
#X connect 31 0 24 1;
#X connect 32 0 24 2;
