#N canvas 1929 139 648 536 16;
#X obj 371 119 inlet dollar_zero;
#X msg 350 280 symbol \$1_\$2;
#X obj 350 199 f;
#X msg 164 422 symbol \$1_\$2;
#X obj 257 325 list prepend;
#X obj 164 394 list prepend;
#X obj 159 200 f;
#X obj 164 450 outlet symbol;
#X obj 180 119 inlet layer_number;
#X obj 22 119 inlet row_number;
#X msg 257 353 symbol \$1L-\$2;
#X obj 350 252 list append;
#X obj 435 199 list store \$1;
#X text 20 14 // Returns the dollar_zero symbol for array of type: type at layer: layer_number \, row: row_number \; args \; \$1: symbol array_type \;;
#X obj 22 147 t f b b b, f 52;
#X connect 0 0 2 1;
#X connect 1 0 4 1;
#X connect 2 0 11 0;
#X connect 3 0 7 0;
#X connect 4 0 10 0;
#X connect 5 0 3 0;
#X connect 6 0 4 0;
#X connect 8 0 6 1;
#X connect 9 0 14 0;
#X connect 10 0 5 1;
#X connect 11 0 1 0;
#X connect 12 0 11 1;
#X connect 14 0 5 0;
#X connect 14 1 6 0;
#X connect 14 2 2 0;
#X connect 14 3 12 0;
