#N canvas 2321 446 973 814 16;
#X obj 379 249 array size;
#X obj 434 743 array set;
#N canvas 572 578 352 303 dollar_zero_args 0;
#X obj 96 22 inlet dollar_zero;
#X obj 96 185 d_0;
#X obj 96 101 list store \$1;
#X obj 96 213 outlet;
#X obj 96 63 t b f, f 23;
#X connect 0 0 4 0;
#X connect 1 0 3 0;
#X connect 2 0 1 0;
#X connect 4 0 2 0;
#X connect 4 1 1 1;
#X restore 379 97 pd dollar_zero_args;
#X obj 379 53 inlet dollar_zero;
#X obj 43 63 inlet bang;
#X obj 358 278 f;
#X obj 379 216 t b s s, f 16;
#X obj 168 479 / 10;
#X obj 358 306 nnb.range;
#X obj 358 334 t b f;
#X obj 168 443 random 10;
#X obj 168 542 expr if($f1 == 0 \, 0.1 \, $f1);
#X obj 168 507 - 0.5;
#X connect 0 0 5 1;
#X connect 2 0 6 0;
#X connect 3 0 2 0;
#X connect 4 0 5 0;
#X connect 5 0 8 0;
#X connect 6 0 0 0;
#X connect 6 1 0 1;
#X connect 6 2 1 2;
#X connect 7 0 12 0;
#X connect 8 0 9 0;
#X connect 9 0 10 0;
#X connect 9 1 1 1;
#X connect 10 0 7 0;
#X connect 11 0 1 0;
#X connect 12 0 11 0;
