#N canvas 4 70 1548 758 16;
#X obj 29 604 outlet index;
#X msg 1076 224 1;
#X msg 1137 224 2;
#X msg 1198 224 3;
#X obj 1076 175 select relu tanh sigmoid linear;
#X msg 1259 224 4;
#X msg 1321 224 0;
#X obj 1322 604 outlet activation;
#X obj 858 28 inlet dollar_zero;
#N canvas 346 125 2493 1263 neuron 0;
#X obj 65 1104 outlet index;
#X obj 1894 386 nn.read_array;
#X msg 1894 354 0;
#X obj 472 400 *;
#X obj 813 804 +;
#X obj 850 1104 outlet activation;
#X obj 602 1049 nn.cache_model_forward, f 106;
#X obj 430 297 f;
#X obj 613 330 nn.read_array;
#X msg 613 296 0;
#X obj 813 934 nn.activation_functions, f 53;
#X obj 813 962 t f f;
#X obj 2304 89 inlet activation_type;
#X obj 65 89 inlet index;
#X obj 1705 89 inlet w_arr;
#X obj 1819 89 inlet b_arr;
#X obj 2131 89 inlet negative_slope;
#X obj 1928 89 inlet a_arr;
#X obj 2030 89 inlet z_arr;
#X obj 2131 117 s \$0_leak;
#X obj 1023 901 r \$0_leak;
#X obj 2304 117 s \$0_activation_type;
#X obj 1234 901 r \$0_activation_type;
#X obj 813 846 t f f, f 16;
#X obj 1705 117 s \$0_w_arr;
#X obj 1819 117 s \$0_b_arr;
#X obj 714 297 r \$0_w_arr;
#X obj 1995 353 r \$0_b_arr;
#X obj 1928 117 s \$0_a_arr;
#X obj 1235 1016 r \$0_a_arr;
#X obj 2030 117 s \$0_z_arr;
#X obj 1447 1016 r \$0_z_arr;
#X obj 451 89 inlet a_prev_0;
#X obj 817 89 inlet a_prev_1;
#X obj 1183 89 inlet a_prev_2;
#X obj 796 257 f;
#X obj 1162 227 f;
#X obj 979 291 nn.read_array;
#X obj 1080 258 r \$0_w_arr;
#X msg 979 257 1;
#X obj 1345 261 nn.read_array;
#X obj 1446 228 r \$0_w_arr;
#X msg 1345 227 2;
#X obj 1292 324 *;
#X obj 914 354 *;
#X obj 1104 497 +;
#X obj 813 623 +;
#X obj 65 154 t f f b b b b b b b b b, f 229;
#X obj 1549 89 inlet a_prev_3;
#X obj 1528 187 f;
#X obj 1711 221 nn.read_array;
#X obj 1812 188 r \$0_w_arr;
#X obj 1658 274 *;
#X obj 1292 406 +;
#X msg 1711 187 3;
#X connect 1 0 4 1;
#X connect 2 0 1 0;
#X connect 3 0 46 0;
#X connect 4 0 23 0;
#X connect 7 0 3 0;
#X connect 8 0 3 1;
#X connect 9 0 8 0;
#X connect 10 0 11 0;
#X connect 11 0 6 1;
#X connect 11 1 5 0;
#X connect 12 0 21 0;
#X connect 13 0 47 0;
#X connect 14 0 24 0;
#X connect 15 0 25 0;
#X connect 16 0 19 0;
#X connect 17 0 28 0;
#X connect 18 0 30 0;
#X connect 20 0 10 1;
#X connect 22 0 10 2;
#X connect 23 0 10 0;
#X connect 23 1 6 2;
#X connect 26 0 8 1;
#X connect 27 0 1 1;
#X connect 29 0 6 3;
#X connect 31 0 6 4;
#X connect 32 0 7 1;
#X connect 33 0 35 1;
#X connect 34 0 36 1;
#X connect 35 0 44 0;
#X connect 36 0 43 0;
#X connect 37 0 44 1;
#X connect 38 0 37 1;
#X connect 39 0 37 0;
#X connect 40 0 43 1;
#X connect 41 0 40 1;
#X connect 42 0 40 0;
#X connect 43 0 53 0;
#X connect 44 0 45 0;
#X connect 45 0 46 1;
#X connect 46 0 4 0;
#X connect 47 0 0 0;
#X connect 47 1 6 0;
#X connect 47 2 7 0;
#X connect 47 3 9 0;
#X connect 47 4 35 0;
#X connect 47 5 39 0;
#X connect 47 6 36 0;
#X connect 47 7 42 0;
#X connect 47 8 49 0;
#X connect 47 9 54 0;
#X connect 47 10 2 0;
#X connect 48 0 49 1;
#X connect 49 0 52 0;
#X connect 50 0 52 1;
#X connect 51 0 50 1;
#X connect 52 0 53 1;
#X connect 53 0 45 1;
#X connect 54 0 50 0;
#X restore 29 528 pd neuron;
#X f 162;
#X obj 29 28 inlet index;
#X obj 858 56 s \$0_ns;
#X obj 29 108 route float layer position leak activation, f 164;
#X obj 1076 141 symbol;
#X obj 934 403 nnb.array_name a;
#X obj 1063 463 nnb.array_name z;
#X obj 800 249 r \$0_ns;
#X obj 675 283 nnb.array_name w;
#X obj 804 343 nnb.array_name b;
#X obj 290 141 s \$0_l;
#X obj 552 141 s \$0_n;
#X obj 929 309 r \$0_ns;
#X obj 1188 429 r \$0_ns;
#X obj 1059 369 r \$0_ns;
#X obj 675 250 r \$0_n;
#X obj 737 250 r \$0_l;
#X obj 804 310 r \$0_n;
#X obj 866 310 r \$0_l;
#X obj 934 370 r \$0_n;
#X obj 996 370 r \$0_l;
#X obj 1125 430 r \$0_l;
#X obj 1063 430 r \$0_n;
#X obj 157 28 inlet a_prev_0;
#X obj 287 28 inlet a_prev_1;
#X obj 416 28 inlet a_prev_2;
#X obj 546 28 inlet a_prev_3;
#X text 823 108 // leak;
#X connect 1 0 9 10;
#X connect 2 0 9 10;
#X connect 3 0 9 10;
#X connect 4 0 1 0;
#X connect 4 1 2 0;
#X connect 4 2 3 0;
#X connect 4 3 5 0;
#X connect 4 4 6 0;
#X connect 5 0 9 10;
#X connect 6 0 9 10;
#X connect 8 0 11 0;
#X connect 9 0 0 0;
#X connect 9 1 7 0;
#X connect 10 0 12 0;
#X connect 12 0 9 0;
#X connect 12 1 19 0;
#X connect 12 2 20 0;
#X connect 12 3 9 9;
#X connect 12 4 13 0;
#X connect 13 0 4 0;
#X connect 14 0 9 7;
#X connect 15 0 9 8;
#X connect 16 0 17 2;
#X connect 17 0 9 5;
#X connect 18 0 9 6;
#X connect 21 0 18 2;
#X connect 22 0 15 2;
#X connect 23 0 14 2;
#X connect 24 0 17 0;
#X connect 25 0 17 1;
#X connect 26 0 18 0;
#X connect 27 0 18 1;
#X connect 28 0 14 0;
#X connect 29 0 14 1;
#X connect 30 0 15 1;
#X connect 31 0 15 0;
#X connect 32 0 9 1;
#X connect 33 0 9 2;
#X connect 34 0 9 3;
#X connect 35 0 9 4;
