#N canvas 98 70 2778 1332 16;
#X obj 34 15 inlet;
#X obj 971 48 inlet dollar_zero;
#X obj 71 310 nnb.range;
#X obj 71 282 f;
#X obj 450 118 s \$0_nnb_n_prev;
#X obj 404 149 s \$0_nnb_n;
#X obj 219 87 s \$0_nnb_layer;
#X obj 92 253 r \$0_nnb_n;
#X obj 404 87 list split 1;
#X obj 34 210 t b b;
#X obj 34 52 route bang layer_number layer_dims activation leak, f 116;
#X obj 711 213 s \$0_nnp_activation;
#X obj 774 88 s \$0_nnp_leak;
#X obj 1252 448 r \$0_nnp_activation;
#X obj 1055 448 r \$0_nnp_leak;
#X obj 267 443 nnb.array_name da;
#X obj 464 443 nnb.array_name z;
#X obj 661 443 nnb.array_name a;
#X obj 858 443 nnb.array_name dz;
#X obj 333 381 r \$0_nnb_layer;
#X obj 526 381 r \$0_nnb_layer;
#X obj 723 381 r \$0_nnb_layer;
#X obj 924 381 r \$0_nnb_layer;
#X obj 71 338 t b f f f f, f 99;
#X obj 589 119 select relu tanh sigmoid linear;
#X msg 589 152 1;
#X msg 650 152 2;
#X msg 711 152 3;
#X msg 770 152 4;
#X msg 834 152 0;
#X obj 589 87 symbol;
#X obj 71 622 nnb.range;
#X obj 71 594 f;
#X obj 92 565 r \$0_nnb_n;
#X obj 34 522 t b b;
#X text 72 1273 // For dA_prev \, look at nn.da_1x1;
#X obj 71 481 nnb.dz, f 148;
#X text 649 87 // maybe not?;
#X obj 71 919 nnb.dwcolumn, f 116;
#X obj 71 726 f;
#X obj 92 693 r \$0_nnb_n_prev;
#X obj 71 754 nnb.range;
#X obj 533 886 nnb.array_name dz;
#X obj 764 886 nnb.array_name a;
#X obj 996 886 nnb.array_name dw;
#X obj 826 825 r \$0_nnb_layer;
#X obj 826 853 - 1;
#X obj 1062 825 r \$0_nnb_layer;
#X obj 599 825 r \$0_nnb_layer;
#X obj 971 76 s \$0_ns;
#X obj 400 409 r \$0_ns;
#X obj 589 409 r \$0_ns;
#X obj 786 409 r \$0_ns;
#X obj 991 409 r \$0_ns;
#X obj 666 853 r \$0_ns;
#X obj 889 854 r \$0_ns;
#X obj 1129 853 r \$0_ns;
#X text 151 624 // foreach n;
#X text 154 753 // foreach n_prev;
#X obj 71 782 t b f f, f 87;
#X obj 71 650 t b f f, f 116;
#X obj 71 1062 nnb.range;
#X obj 71 1034 f;
#X obj 92 1005 r \$0_nnb_n;
#X obj 34 962 t b b;
#X text 151 1064 // foreach n;
#X obj 71 1243 nnb.db, f 83;
#X obj 401 1210 nnb.array_name dz;
#X obj 467 1149 r \$0_nnb_layer;
#X obj 534 1177 r \$0_ns;
#X obj 798 1149 r \$0_nnb_layer;
#X obj 865 1177 r \$0_ns;
#X obj 732 1210 nnb.array_name db;
#X obj 71 1090 t b f f, f 83;
#X obj 1481 310 nnb.range;
#X obj 1481 282 f;
#X obj 1444 210 t b b;
#X obj 1481 414 f;
#X obj 1481 442 nnb.range;
#X obj 1483 599 nnb.da, f 116;
#X obj 1502 253 r \$0_nnb_n_prev;
#X obj 1502 381 r \$0_nnb_n;
#X text 1561 312 // for i in range(n_prev);
#X text 1564 441 // for j in range(n);
#X obj 2168 280 r \$0_nnb_layer;
#X obj 2168 308 - 1;
#X obj 2235 339 r \$0_ns;
#X obj 2102 371 nnb.array_name da;
#X obj 2007 505 r \$0_nnb_layer;
#X obj 2070 534 r \$0_ns;
#X obj 1945 566 nnb.array_name w;
#X obj 2238 505 r \$0_nnb_layer;
#X obj 2301 534 r \$0_ns;
#X obj 2469 475 r \$0_nnb_layer;
#X obj 2469 503 - 1;
#X obj 2540 534 r \$0_ns;
#X obj 2407 566 nnb.array_name da;
#X obj 2176 566 nnb.array_name dz;
#X obj 1481 338 t b f f f, f 78;
#X obj 2168 336 abs;
#X obj 2469 531 abs;
#X msg 2102 399 \; \$1 const 0;
#X obj 1711 565 f;
#X obj 1481 470 t b b f f, f 85;
#X connect 0 0 10 0;
#X connect 1 0 49 0;
#X connect 2 0 23 0;
#X connect 3 0 2 0;
#X connect 7 0 3 1;
#X connect 8 0 5 0;
#X connect 8 1 4 0;
#X connect 9 0 34 0;
#X connect 9 1 3 0;
#X connect 10 0 76 0;
#X connect 10 1 6 0;
#X connect 10 2 8 0;
#X connect 10 3 30 0;
#X connect 10 4 12 0;
#X connect 13 0 36 6;
#X connect 14 0 36 5;
#X connect 15 0 36 1;
#X connect 16 0 36 2;
#X connect 17 0 36 3;
#X connect 18 0 36 4;
#X connect 19 0 15 1;
#X connect 20 0 16 1;
#X connect 21 0 17 1;
#X connect 22 0 18 1;
#X connect 23 0 36 0;
#X connect 23 1 15 0;
#X connect 23 2 16 0;
#X connect 23 3 17 0;
#X connect 23 4 18 0;
#X connect 24 0 25 0;
#X connect 24 1 26 0;
#X connect 24 2 27 0;
#X connect 24 3 28 0;
#X connect 24 4 29 0;
#X connect 25 0 11 0;
#X connect 26 0 11 0;
#X connect 27 0 11 0;
#X connect 28 0 11 0;
#X connect 29 0 11 0;
#X connect 30 0 24 0;
#X connect 31 0 60 0;
#X connect 32 0 31 0;
#X connect 33 0 32 1;
#X connect 34 0 64 0;
#X connect 34 1 32 0;
#X connect 39 0 41 0;
#X connect 40 0 39 1;
#X connect 41 0 59 0;
#X connect 42 0 38 2;
#X connect 43 0 38 3;
#X connect 44 0 38 4;
#X connect 45 0 46 0;
#X connect 46 0 43 1;
#X connect 47 0 44 1;
#X connect 48 0 42 1;
#X connect 50 0 15 2;
#X connect 51 0 16 2;
#X connect 52 0 17 2;
#X connect 53 0 18 2;
#X connect 54 0 42 2;
#X connect 55 0 43 2;
#X connect 56 0 44 2;
#X connect 59 0 38 0;
#X connect 59 1 38 1;
#X connect 59 2 43 0;
#X connect 60 0 39 0;
#X connect 60 1 42 0;
#X connect 60 2 44 0;
#X connect 61 0 73 0;
#X connect 62 0 61 0;
#X connect 63 0 62 1;
#X connect 64 1 62 0;
#X connect 67 0 66 1;
#X connect 68 0 67 1;
#X connect 69 0 67 2;
#X connect 70 0 72 1;
#X connect 71 0 72 2;
#X connect 72 0 66 2;
#X connect 73 0 66 0;
#X connect 73 1 67 0;
#X connect 73 2 72 0;
#X connect 74 0 98 0;
#X connect 75 0 74 0;
#X connect 76 1 75 0;
#X connect 77 0 78 0;
#X connect 78 0 103 0;
#X connect 80 0 75 1;
#X connect 81 0 77 1;
#X connect 84 0 85 0;
#X connect 85 0 99 0;
#X connect 86 0 87 2;
#X connect 87 0 101 0;
#X connect 88 0 90 1;
#X connect 89 0 90 2;
#X connect 90 0 79 2;
#X connect 91 0 97 1;
#X connect 92 0 97 2;
#X connect 93 0 94 0;
#X connect 94 0 100 0;
#X connect 95 0 96 2;
#X connect 96 0 79 4;
#X connect 97 0 79 3;
#X connect 98 0 77 0;
#X connect 98 1 102 1;
#X connect 98 2 96 0;
#X connect 98 3 87 0;
#X connect 99 0 87 1;
#X connect 100 0 96 1;
#X connect 102 0 79 1;
#X connect 103 0 79 0;
#X connect 103 1 102 0;
#X connect 103 2 90 0;
#X connect 103 3 97 0;
