#N canvas 1724 70 991 1106 16;
#X obj 67 122 inlet bang;
#X obj 413 215 array size;
#X obj 392 650 array get;
#X msg 168 376 1;
#X obj 518 650 array get;
#X obj 611 920 array set;
#X obj 457 773 -;
#X obj 413 155 t b s s, f 14;
#X obj 168 404 t f f;
#X obj 67 952 outlet done;
#X obj 392 316 t f f f, f 32;
#X obj 392 260 f;
#X obj 392 288 nnb.range;
#X obj 67 155 t b b b, f 13;
#X obj 587 125 inlet s_a_1;
#X obj 413 122 inlet s_a_0;
#X obj 811 120 inlet s_result;
#X text 26 10 // Subtracts a_1 from a_0 and sets the result \;;
#X connect 0 0 13 0;
#X connect 1 0 11 1;
#X connect 2 0 6 0;
#X connect 3 0 8 0;
#X connect 4 0 6 1;
#X connect 6 0 5 0;
#X connect 7 0 1 0;
#X connect 7 1 1 1;
#X connect 7 2 2 2;
#X connect 8 0 2 1;
#X connect 8 1 4 1;
#X connect 10 0 2 0;
#X connect 10 1 4 0;
#X connect 10 2 5 1;
#X connect 11 0 12 0;
#X connect 12 0 10 0;
#X connect 13 0 9 0;
#X connect 13 1 11 0;
#X connect 13 2 3 0;
#X connect 14 0 4 2;
#X connect 15 0 7 0;
#X connect 16 0 5 2;
