#N canvas 4 70 2498 1445 16;
#X obj 34 15 inlet;
#X obj 1231 19 inlet dollar_zero;
#X obj 71 282 nnb.range;
#X obj 71 254 f;
#X obj 369 85 list split 1;
#X obj 34 85 t b b;
#X obj 270 377 nnb.array_name da;
#X obj 470 377 nnb.array_name z;
#X obj 669 377 nnb.array_name a;
#X obj 869 377 nnb.array_name dz;
#X obj 71 310 t b f f f f, f 100;
#X obj 536 113 select relu tanh sigmoid linear;
#X msg 536 146 1;
#X msg 597 146 2;
#X msg 658 146 3;
#X msg 717 146 4;
#X msg 781 146 0;
#X obj 71 525 nnb.range;
#X obj 71 497 f;
#X obj 34 468 t b b;
#X obj 71 415 nnb.dz, f 150;
#X obj 71 974 nnb.dwcolumn, f 116;
#X obj 71 629 f;
#X obj 71 657 nnb.range;
#X obj 533 941 nnb.array_name dz;
#X obj 764 861 nnb.array_name a;
#X obj 996 941 nnb.array_name dw;
#X obj 1231 52 s \$0_ns;
#X obj 403 343 r \$0_ns;
#X obj 595 343 r \$0_ns;
#X obj 794 343 r \$0_ns;
#X obj 1002 343 r \$0_ns;
#X obj 666 908 r \$0_ns;
#X obj 889 829 r \$0_ns;
#X obj 1129 908 r \$0_ns;
#X obj 71 685 t b f f, f 87;
#X obj 71 553 t b f f, f 116;
#X obj 71 1084 nnb.range;
#X obj 71 1056 f;
#X obj 34 1027 t b b;
#X obj 71 1211 nnb.db, f 83;
#X obj 401 1178 nnb.array_name dz;
#X obj 534 1145 r \$0_ns;
#X obj 865 1145 r \$0_ns;
#X obj 732 1178 nnb.array_name db;
#X obj 71 1112 t b f f, f 83;
#X obj 1503 192 nnb.range;
#X obj 1503 164 f;
#X obj 1503 296 f;
#X obj 1503 324 nnb.range;
#X text 1583 194 // for i in range(n_prev);
#X text 1586 323 // for j in range(n);
#X obj 2281 221 r \$0_ns;
#X obj 2148 253 nnb.array_name da;
#X obj 2014 385 r \$0_ns;
#X obj 1889 417 nnb.array_name w;
#X obj 2215 385 r \$0_ns;
#X obj 2409 385 r \$0_ns;
#X obj 2276 417 nnb.array_name da;
#X obj 2082 417 nnb.array_name dz;
#X obj 1503 220 t b f f f, f 81;
#X msg 2148 281 \; \$1 const 0;
#X obj 1696 416 f;
#X obj 1503 352 t b b f f, f 73;
#X obj 1503 450 nnb.da_for_weight, f 97;
#X obj 201 85 s \$0_l;
#X obj 336 343 r \$0_l;
#X obj 532 343 r \$0_l;
#X obj 731 343 r \$0_l;
#X obj 935 343 r \$0_l;
#X obj 599 908 r \$0_l;
#X obj 826 803 r \$0_l;
#X obj 1062 908 r \$0_l;
#X obj 467 1145 r \$0_l;
#X obj 798 1145 r \$0_l;
#X obj 2214 192 r \$0_l;
#X obj 1951 385 r \$0_l;
#X obj 2148 385 r \$0_l;
#X obj 2342 356 r \$0_l;
#X text 151 527 // for i in range(n);
#X text 154 655 // for j in range (n_prev);
#X obj 369 147 s \$0_n;
#X obj 415 113 s \$0_n_prev;
#X obj 92 222 r \$0_n;
#X obj 92 468 r \$0_n;
#X obj 92 596 r \$0_n_prev;
#X obj 92 1027 r \$0_n;
#X obj 1524 135 r \$0_n_prev;
#X obj 1524 263 r \$0_n;
#X text 155 284 // for i in range(n);
#X text 151 1086 // for i in range (n);
#X obj 704 85 s \$0_leak;
#X obj 1068 382 r \$0_leak;
#X obj 658 207 s \$0_activation;
#X obj 1268 382 r \$0_activation;
#X obj 71 189 spigot 1;
#X obj 132 159 != 1;
#X obj 1466 1219 outlet bang;
#X obj 536 86 symbol;
#X obj 2329 275 print level;
#X obj 2214 220 + 1;
#X obj 2342 386 + 1;
#X obj 826 831 + 1;
#X obj 871 85 s \$0_skip_dz;
#X obj 132 130 r \$0_skip_dz;
#X obj 1503 95 spigot 1;
#X obj 1564 65 != 1;
#X obj 1466 57 t b b;
#X obj 34 52 route bang layer_number layer_dims activation leak skip_dz initial_layer, f 147;
#X obj 1039 85 s \$0_initial_layer;
#X obj 1564 36 r \$0_initial_layer;
#X obj 963 866 nnb.input_name;
#X obj 825 625 r \$0_initial_layer;
#X obj 825 653 t f f, f 17;
#X obj 825 681 != 1;
#X obj 958 681 == 1;
#X obj 764 719 t f f, f 17;
#X obj 764 747 spigot 1;
#X obj 897 747 spigot 0;
#X obj 1072 833 r \$0_ns;
#X connect 0 0 108 0;
#X connect 1 0 27 0;
#X connect 2 0 10 0;
#X connect 3 0 2 0;
#X connect 4 0 81 0;
#X connect 4 1 82 0;
#X connect 5 0 19 0;
#X connect 5 1 95 0;
#X connect 6 0 20 1;
#X connect 7 0 20 2;
#X connect 8 0 20 3;
#X connect 9 0 20 4;
#X connect 10 0 20 0;
#X connect 10 1 6 0;
#X connect 10 2 7 0;
#X connect 10 3 8 0;
#X connect 10 4 9 0;
#X connect 11 0 12 0;
#X connect 11 1 13 0;
#X connect 11 2 14 0;
#X connect 11 3 15 0;
#X connect 11 4 16 0;
#X connect 12 0 93 0;
#X connect 13 0 93 0;
#X connect 14 0 93 0;
#X connect 15 0 93 0;
#X connect 16 0 93 0;
#X connect 17 0 36 0;
#X connect 18 0 17 0;
#X connect 19 0 39 0;
#X connect 19 1 18 0;
#X connect 22 0 23 0;
#X connect 23 0 35 0;
#X connect 24 0 21 2;
#X connect 25 0 21 3;
#X connect 26 0 21 4;
#X connect 28 0 6 2;
#X connect 29 0 7 2;
#X connect 30 0 8 2;
#X connect 31 0 9 2;
#X connect 32 0 24 2;
#X connect 33 0 25 2;
#X connect 34 0 26 2;
#X connect 35 0 21 0;
#X connect 35 1 21 1;
#X connect 35 2 116 0;
#X connect 36 0 22 0;
#X connect 36 1 24 0;
#X connect 36 2 26 0;
#X connect 37 0 45 0;
#X connect 38 0 37 0;
#X connect 39 0 107 0;
#X connect 39 1 38 0;
#X connect 41 0 40 1;
#X connect 42 0 41 2;
#X connect 43 0 44 2;
#X connect 44 0 40 2;
#X connect 45 0 40 0;
#X connect 45 1 41 0;
#X connect 45 2 44 0;
#X connect 46 0 60 0;
#X connect 47 0 46 0;
#X connect 48 0 49 0;
#X connect 49 0 63 0;
#X connect 52 0 53 2;
#X connect 53 0 61 0;
#X connect 54 0 55 2;
#X connect 55 0 64 2;
#X connect 56 0 59 2;
#X connect 57 0 58 2;
#X connect 58 0 64 4;
#X connect 59 0 64 3;
#X connect 60 0 48 0;
#X connect 60 1 62 1;
#X connect 60 2 58 0;
#X connect 60 3 53 0;
#X connect 62 0 64 1;
#X connect 63 0 64 0;
#X connect 63 1 62 0;
#X connect 63 2 55 0;
#X connect 63 3 59 0;
#X connect 66 0 6 1;
#X connect 67 0 7 1;
#X connect 68 0 8 1;
#X connect 69 0 9 1;
#X connect 70 0 24 1;
#X connect 71 0 102 0;
#X connect 72 0 26 1;
#X connect 73 0 41 1;
#X connect 74 0 44 1;
#X connect 75 0 100 0;
#X connect 76 0 55 1;
#X connect 77 0 59 1;
#X connect 78 0 101 0;
#X connect 83 0 3 1;
#X connect 84 0 18 1;
#X connect 85 0 22 1;
#X connect 86 0 38 1;
#X connect 87 0 47 1;
#X connect 88 0 48 1;
#X connect 92 0 20 5;
#X connect 94 0 20 6;
#X connect 95 0 3 0;
#X connect 96 0 95 1;
#X connect 98 0 11 0;
#X connect 100 0 53 1;
#X connect 101 0 58 1;
#X connect 102 0 25 1;
#X connect 104 0 96 0;
#X connect 105 0 47 0;
#X connect 106 0 105 1;
#X connect 107 0 97 0;
#X connect 107 1 105 0;
#X connect 108 0 5 0;
#X connect 108 1 65 0;
#X connect 108 2 4 0;
#X connect 108 3 98 0;
#X connect 108 4 91 0;
#X connect 108 5 103 0;
#X connect 108 6 109 0;
#X connect 110 0 106 0;
#X connect 111 0 21 3;
#X connect 112 0 113 0;
#X connect 113 0 114 0;
#X connect 113 1 115 0;
#X connect 114 0 117 1;
#X connect 115 0 118 1;
#X connect 116 0 117 0;
#X connect 116 1 118 0;
#X connect 117 0 25 0;
#X connect 118 0 111 0;
#X connect 119 0 111 1;
