#N canvas 1134 690 360 361 16;
#X obj 41 26 inlet f_count;
#X obj 126 162 + 1;
#X obj 41 139 f;
#X obj 41 54 t f f, f 27;
#X obj 254 217 - 1;
#X obj 41 82 until;
#X obj 233 250 sel;
#X obj 41 182 t f f f;
#X obj 67 281 outlet;
#X msg 95 82 0;
#X connect 0 0 3 0;
#X connect 1 0 2 1;
#X connect 2 0 7 0;
#X connect 3 0 5 0;
#X connect 3 1 4 0;
#X connect 4 0 6 1;
#X connect 5 0 2 0;
#X connect 6 0 9 0;
#X connect 7 0 6 0;
#X connect 7 1 8 0;
#X connect 7 2 1 0;
#X connect 9 0 2 1;
