#N canvas 77 206 2429 1207 16;
#X obj 34 15 inlet;
#X obj 1231 19 inlet dollar_zero;
#X obj 71 282 nnb.range;
#X obj 71 254 f;
#X obj 425 85 list split 1;
#X obj 34 85 t b b;
#X obj 270 377 nnb.array_name da;
#X obj 470 377 nnb.array_name z;
#X obj 669 377 nnb.array_name a;
#X obj 869 377 nnb.array_name dz;
#X obj 71 310 t b f f f f, f 100;
#X obj 620 113 select relu tanh sigmoid linear;
#X msg 620 146 1;
#X msg 681 146 2;
#X msg 742 146 3;
#X msg 801 146 4;
#X msg 865 146 0;
#X obj 71 525 nnb.range;
#X obj 71 497 f;
#X obj 34 468 t b b;
#X obj 71 415 nnb.dz, f 150;
#X obj 71 784 nnb.dwcolumn, f 116;
#X obj 71 629 f;
#X obj 71 657 nnb.range;
#X obj 533 751 nnb.array_name dz;
#X obj 764 751 nnb.array_name a;
#X obj 996 751 nnb.array_name dw;
#X obj 826 691 - 1;
#X obj 1231 52 s \$0_ns;
#X obj 403 343 r \$0_ns;
#X obj 595 343 r \$0_ns;
#X obj 794 343 r \$0_ns;
#X obj 1002 343 r \$0_ns;
#X obj 666 718 r \$0_ns;
#X obj 889 719 r \$0_ns;
#X obj 1129 718 r \$0_ns;
#X obj 71 685 t b f f, f 87;
#X obj 71 553 t b f f, f 116;
#X obj 71 894 nnb.range;
#X obj 71 866 f;
#X obj 34 837 t b b;
#X obj 71 1021 nnb.db, f 83;
#X obj 401 988 nnb.array_name dz;
#X obj 534 955 r \$0_ns;
#X obj 865 955 r \$0_ns;
#X obj 732 988 nnb.array_name db;
#X obj 71 922 t b f f, f 83;
#X obj 1424 132 nnb.range;
#X obj 1424 104 f;
#X obj 1424 236 f;
#X obj 1424 264 nnb.range;
#X text 1504 134 // for i in range(n_prev);
#X text 1507 263 // for j in range(n);
#X obj 2135 130 - 1;
#X obj 2202 161 r \$0_ns;
#X obj 2069 193 nnb.array_name da;
#X obj 1935 325 r \$0_ns;
#X obj 1810 357 nnb.array_name w;
#X obj 2136 325 r \$0_ns;
#X obj 2263 294 - 1;
#X obj 2330 325 r \$0_ns;
#X obj 2197 357 nnb.array_name da;
#X obj 2003 357 nnb.array_name dz;
#X obj 1424 160 t b f f f, f 81;
#X obj 2135 158 abs;
#X obj 2263 322 abs;
#X msg 2069 221 \; \$1 const 0;
#X obj 1617 356 f;
#X obj 1424 292 t b b f f, f 73;
#X obj 1424 390 nnb.da_for_weight, f 97;
#X obj 826 719 abs;
#X obj 229 85 s \$0_l;
#X obj 336 343 r \$0_l;
#X obj 532 343 r \$0_l;
#X obj 731 343 r \$0_l;
#X obj 935 343 r \$0_l;
#X obj 599 718 r \$0_l;
#X obj 826 663 r \$0_l;
#X obj 1062 718 r \$0_l;
#X obj 467 955 r \$0_l;
#X obj 798 955 r \$0_l;
#X obj 2135 102 r \$0_l;
#X obj 1872 325 r \$0_l;
#X obj 2069 325 r \$0_l;
#X obj 2263 266 r \$0_l;
#X text 151 527 // for i in range(n);
#X text 154 655 // for j in range (n_prev);
#X obj 425 147 s \$0_n;
#X obj 471 113 s \$0_n_prev;
#X obj 92 222 r \$0_n;
#X obj 92 468 r \$0_n;
#X obj 92 596 r \$0_n_prev;
#X obj 92 837 r \$0_n;
#X obj 1445 75 r \$0_n_prev;
#X obj 1445 203 r \$0_n;
#X text 155 284 // for i in range(n);
#X text 151 896 // for i in range (n);
#X obj 816 85 s \$0_leak;
#X obj 1068 382 r \$0_leak;
#X obj 742 207 s \$0_activation;
#X obj 1268 382 r \$0_activation;
#X obj 34 52 route bang layer_number layer_dims activation leak skip_dz, f 147;
#X obj 1011 85 s \$0_skip;
#X obj 71 189 spigot 1;
#X obj 132 131 r \$0_skip;
#X obj 132 159 != 1;
#X obj 1424 1069 outlet bang;
#X connect 0 0 101 0;
#X connect 1 0 28 0;
#X connect 2 0 10 0;
#X connect 3 0 2 0;
#X connect 4 0 87 0;
#X connect 4 1 88 0;
#X connect 5 0 19 0;
#X connect 5 1 103 0;
#X connect 6 0 20 1;
#X connect 7 0 20 2;
#X connect 8 0 20 3;
#X connect 9 0 20 4;
#X connect 10 0 20 0;
#X connect 10 1 6 0;
#X connect 10 2 7 0;
#X connect 10 3 8 0;
#X connect 10 4 9 0;
#X connect 11 0 12 0;
#X connect 11 1 13 0;
#X connect 11 2 14 0;
#X connect 11 3 15 0;
#X connect 11 4 16 0;
#X connect 12 0 99 0;
#X connect 13 0 99 0;
#X connect 14 0 99 0;
#X connect 15 0 99 0;
#X connect 16 0 99 0;
#X connect 17 0 37 0;
#X connect 18 0 17 0;
#X connect 19 0 40 0;
#X connect 19 1 18 0;
#X connect 22 0 23 0;
#X connect 23 0 36 0;
#X connect 24 0 21 2;
#X connect 25 0 21 3;
#X connect 26 0 21 4;
#X connect 27 0 70 0;
#X connect 29 0 6 2;
#X connect 30 0 7 2;
#X connect 31 0 8 2;
#X connect 32 0 9 2;
#X connect 33 0 24 2;
#X connect 34 0 25 2;
#X connect 35 0 26 2;
#X connect 36 0 21 0;
#X connect 36 1 21 1;
#X connect 36 2 25 0;
#X connect 37 0 22 0;
#X connect 37 1 24 0;
#X connect 37 2 26 0;
#X connect 38 0 46 0;
#X connect 39 0 38 0;
#X connect 40 0 48 0;
#X connect 40 1 39 0;
#X connect 42 0 41 1;
#X connect 43 0 42 2;
#X connect 44 0 45 2;
#X connect 45 0 41 2;
#X connect 46 0 41 0;
#X connect 46 1 42 0;
#X connect 46 2 45 0;
#X connect 47 0 63 0;
#X connect 48 0 47 0;
#X connect 49 0 50 0;
#X connect 50 0 68 0;
#X connect 53 0 64 0;
#X connect 54 0 55 2;
#X connect 55 0 66 0;
#X connect 56 0 57 2;
#X connect 57 0 69 2;
#X connect 58 0 62 2;
#X connect 59 0 65 0;
#X connect 60 0 61 2;
#X connect 61 0 69 4;
#X connect 62 0 69 3;
#X connect 63 0 49 0;
#X connect 63 1 67 1;
#X connect 63 2 61 0;
#X connect 63 3 55 0;
#X connect 64 0 55 1;
#X connect 65 0 61 1;
#X connect 67 0 69 1;
#X connect 68 0 69 0;
#X connect 68 1 67 0;
#X connect 68 2 57 0;
#X connect 68 3 62 0;
#X connect 69 0 106 0;
#X connect 70 0 25 1;
#X connect 72 0 6 1;
#X connect 73 0 7 1;
#X connect 74 0 8 1;
#X connect 75 0 9 1;
#X connect 76 0 24 1;
#X connect 77 0 27 0;
#X connect 78 0 26 1;
#X connect 79 0 42 1;
#X connect 80 0 45 1;
#X connect 81 0 53 0;
#X connect 82 0 57 1;
#X connect 83 0 62 1;
#X connect 84 0 59 0;
#X connect 89 0 3 1;
#X connect 90 0 18 1;
#X connect 91 0 22 1;
#X connect 92 0 39 1;
#X connect 93 0 48 1;
#X connect 94 0 49 1;
#X connect 98 0 20 5;
#X connect 100 0 20 6;
#X connect 101 0 5 0;
#X connect 101 1 71 0;
#X connect 101 2 4 0;
#X connect 101 3 11 0;
#X connect 101 4 97 0;
#X connect 101 5 102 0;
#X connect 103 0 3 0;
#X connect 104 0 105 0;
#X connect 105 0 103 1;
