#N canvas 2016 218 535 534 16;
#X obj 296 119 inlet dollar_zero;
#X msg 275 280 symbol \$1_\$2;
#X obj 275 199 f;
#X msg 164 362 symbol \$1_\$2;
#X obj 164 334 list prepend;
#X obj 164 390 outlet symbol;
#X obj 22 119 inlet row_number;
#X obj 275 252 list append Y;
#X obj 22 147 t f b, f 32;
#X text 20 14 // Returns the dollar_zero symbol for the target array Y at row_number \;;
#X connect 0 0 2 1;
#X connect 1 0 4 1;
#X connect 2 0 7 0;
#X connect 3 0 5 0;
#X connect 4 0 3 0;
#X connect 6 0 8 0;
#X connect 7 0 1 0;
#X connect 8 0 4 0;
#X connect 8 1 2 0;
