#N canvas 4 70 1660 1332 16;
#N canvas 0 50 450 250 (subpatch) 0;
#X array \$0_x_0 4 float 3;
#A 0 -0.585658 0.928521 0.442814 -0.471386;
#X coords 0 1 4 -1 200 140 1;
#X restore 64 868 graph;
#X msg 27 9 bang;
#X obj 112 69 f \$0;
#X obj 112 100 s \$0_ns;
#X obj 684 47 r \$0_ns;
#X obj 495 79 nn.array_cycle x_0, f 24;
#X obj 589 47 r \$0_init;
#X obj 27 37 t b b, f 11;
#X obj 27 69 s \$0_init;
#N canvas 15 209 1103 1193 arrays 0;
#X msg 24 391 const 0;
#X msg 122 18 size 4;
#X obj 224 488 array define -k \$0_aL-1_0 4;
#A 0 -0.315418 0.15757 0.0343108 -0.284822;
#X obj 594 488 array define -k \$0_daL-1_0 4;
#A 0 0.134437 0.143648 -0.213477 -0.00638173;
#X obj 224 518 array define -k \$0_zL-1_0 4;
#A 0 -0.326551 0.158893 0.0343242 -0.292922;
#X obj 594 518 array define -k \$0_dzL-1_0 4;
#A 0 0.12107 0.140084 -0.213226 -0.00586402;
#X obj 261 583 array define -k \$0_bL-1_0 1;
#A 0 0.3;
#X obj 631 583 array define -k \$0_dbL-1_0 1;
#A 0 0.010516;
#X obj 224 628 array define -k \$0_aL-1_1 4;
#A 0 0.144773 -0.186765 -0.106623 0.11794;
#X obj 594 628 array define -k \$0_daL-1_1 4;
#A 0 0.0448122 0.0478826 -0.0711592 -0.00212724;
#X obj 224 658 array define -k \$0_zL-1_1 4;
#A 0 0.145798 -0.188983 -0.10703 0.118492;
#X obj 594 658 array define -k \$0_dzL-1_1 4;
#A 0 0.0438719 0.0462128 -0.0703502 -0.00209765;
#X obj 261 723 array define -k \$0_bL-1_1 1;
#A 0 0.1;
#X obj 631 723 array define -k \$0_dbL-1_1 1;
#A 0 0.00440922;
#X obj 224 768 array define -k \$0_aL-1_2 4;
#A 0 -0.00364075 -0.497905 -0.397833 -0.0476879;
#X obj 224 798 array define -k \$0_zL-1_2 4;
#A 0 -0.00364077 -0.546517 -0.421071 -0.0477241;
#X obj 261 863 array define -k \$0_bL-1_2 1;
#A 0 0.3;
#X obj 594 768 array define -k \$0_daL-1_2 4;
#A 0 0.0448122 0.0478826 -0.0711592 -0.00212724;
#X obj 594 798 array define -k \$0_dzL-1_2 4;
#A 0 0.0448117 0.036016 -0.0598967 -0.0021224;
#X obj 631 863 array define -k \$0_dbL-1_2 1;
#A 0 0.00470213;
#X obj 215 948 array define -k \$0_aL-0_0 4;
#A 0 -0.280512 -0.221196 -0.240152 -0.278421;
#X obj 585 948 array define -k \$0_daL-0_0 4;
#A 0 0 0 0 0;
#X obj 215 978 array define -k \$0_zL-0_0 4;
#A 0 -0.280512 -0.221196 -0.240152 -0.278421;
#X obj 585 978 array define -k \$0_dzL-0_0 4;
#A 0 0.448122 0.478826 -0.711591 -0.0212724;
#X obj 252 1013 array define -k \$0_wL-0_0 3;
#A 0 0.3 0.1 0.1;
#X obj 622 1013 array define -k \$0_dwL-0_0 3;
#A 0 -0.0210586 0.0122156 0.0110463;
#X obj 252 1043 array define -k \$0_bL-0_0 1;
#A 0 -0.2;
#X obj 622 1043 array define -k \$0_dbL-0_0 1;
#A 0 0.0485211;
#X obj 227 18 array define -k \$0_aL-2_0 4;
#A 0 -0.668695 -0.898841 -0.849671 -0.694924;
#X obj 597 18 array define -k \$0_daL-2_0 4;
#A 0 0.0553003 0.056287 -0.087709 -0.00265106;
#X obj 227 48 array define -k \$0_zL-2_0 4;
#A 0 -0.808378 -1.46615 -1.25497 -0.857415;
#X obj 597 48 array define -k \$0_dzL-2_0 4;
#A 0 0.0305994 0.0108113 -0.0243884 -0.00137081;
#X obj 264 113 array define -k \$0_bL-2_0 1;
#A 0 -1.06279;
#X obj 634 113 array define -k \$0_dbL-2_0 1;
#A 0 0.00391289;
#X obj 227 158 array define -k \$0_aL-2_1 4;
#A 0 -0.755679 -0.640455 -0.68135 -0.748132;
#X obj 597 158 array define -k \$0_daL-2_1 4;
#A 0 0.0530972 0.0575957 -0.0891894 -0.0025628;
#X obj 227 188 array define -k \$0_zL-2_1 4;
#A 0 -0.986064 -0.758945 -0.831629 -0.968699;
#X obj 597 187 array define -k \$0_dzL-2_1 4;
#A 0 0.022784 0.033977 -0.0477843 -0.0011284;
#X obj 264 253 array define -k \$0_bL-2_1 1;
#A 0 -0.898218;
#X obj 634 253 array define -k \$0_dbL-2_1 1;
#A 0 0.00196207;
#X obj 227 298 array define -k \$0_aL-2_2 4;
#A 0 0.476352 -0.737109 -0.441996 0.386712;
#X obj 597 298 array define -k \$0_daL-2_2 4;
#A 0 -0.0217291 -0.0323845 0.0472617 0.00107711;
#X obj 227 328 array define -k \$0_zL-2_2 4;
#A 0 0.518255 -0.94412 -0.474708 0.407929;
#X obj 597 328 array define -k \$0_dzL-2_2 4;
#A 0 -0.0167985 -0.0147994 0.0380287 0.000916035;
#X obj 634 363 array define -k \$0_dwL-2_2 1;
#A 0 0.00312612;
#X obj 264 83 array define -k \$0_wL-2_0 1;
#A 0 -0.434412;
#X obj 634 83 array define -k \$0_dwL-2_0 1;
#A 0 -0.0045089;
#X obj 264 223 array define -k \$0_wL-2_1 1;
#A 0 0.149994;
#X obj 634 223 array define -k \$0_dwL-2_1 1;
#A 0 -0.000605733;
#X obj 264 363 array define -k \$0_wL-2_2 1;
#A 0 -0.965787;
#X obj 264 393 array define -k \$0_bL-2_2 1;
#A 0 -0.0473664;
#X obj 634 393 array define -k \$0_dbL-2_2 1;
#A 0 0.00183671;
#X obj 261 553 array define -k \$0_wL-1_0 3;
#A 0 0.2 0.4 -0.4;
#X obj 631 553 array define -k \$0_dwL-1_0 3;
#A 0 -0.00539549 -0.00787883 0.0116057;
#X obj 261 693 array define -k \$0_wL-1_1 3;
#A 0 0.3 -0.2 0.2;
#X obj 631 693 array define -k \$0_dwL-1_1 3;
#A 0 -0.00240676 -0.00330993 0.00428196;
#X obj 261 833 array define -k \$0_wL-1_2 3;
#A 0 0.4 0.3 0.4;
#X obj 631 833 array define -k \$0_dwL-1_2 3;
#A 0 -0.00248863 -0.00363099 0.00511489;
#X msg 120 56 style 0;
#X obj 27 16 inlet;
#X connect 0 0 28 0;
#X connect 0 0 57 0;
#X connect 0 0 56 0;
#X connect 0 0 55 0;
#X connect 0 0 54 0;
#X connect 0 0 53 0;
#X connect 0 0 52 0;
#X connect 0 0 51 0;
#X connect 0 0 50 0;
#X connect 0 0 49 0;
#X connect 0 0 48 0;
#X connect 0 0 47 0;
#X connect 0 0 46 0;
#X connect 0 0 45 0;
#X connect 0 0 44 0;
#X connect 0 0 43 0;
#X connect 0 0 42 0;
#X connect 0 0 41 0;
#X connect 0 0 40 0;
#X connect 0 0 39 0;
#X connect 0 0 38 0;
#X connect 0 0 37 0;
#X connect 0 0 36 0;
#X connect 0 0 35 0;
#X connect 0 0 34 0;
#X connect 0 0 33 0;
#X connect 0 0 32 0;
#X connect 0 0 31 0;
#X connect 0 0 30 0;
#X connect 0 0 29 0;
#X connect 0 0 27 0;
#X connect 0 0 26 0;
#X connect 0 0 25 0;
#X connect 0 0 24 0;
#X connect 0 0 23 0;
#X connect 0 0 22 0;
#X connect 0 0 21 0;
#X connect 0 0 20 0;
#X connect 0 0 19 0;
#X connect 0 0 18 0;
#X connect 0 0 17 0;
#X connect 0 0 16 0;
#X connect 0 0 15 0;
#X connect 0 0 14 0;
#X connect 0 0 13 0;
#X connect 0 0 12 0;
#X connect 0 0 11 0;
#X connect 0 0 10 0;
#X connect 0 0 9 0;
#X connect 0 0 8 0;
#X connect 0 0 7 0;
#X connect 0 0 6 0;
#X connect 0 0 5 0;
#X connect 0 0 4 0;
#X connect 0 0 3 0;
#X connect 0 0 2 0;
#X connect 59 0 0 0;
#X restore 98 188 pd arrays;
#N canvas 530 843 294 287 ns 0;
#X obj 96 144 r \$0_ns;
#X obj 96 172 outlet;
#X obj 102 102 cnv 23 21 21 empty empty ns 2 9 0 13 #000000 #dfdfdf 0;
#X connect 0 0 1 0;
#X coords 0 -1 1 1 25 25 2 100 100;
#X restore 38 184 pd ns;
#N canvas 1801 251 744 622 initialize_params 0;
#X obj 268 309 nnb.init_simple wL-1_0;
#X obj 268 339 nnb.init_simple bL-1_0;
#X obj 268 369 nnb.init_simple wL-1_1;
#X obj 268 399 nnb.init_simple bL-1_1;
#X obj 268 428 nnb.init_simple wL-1_2;
#X obj 268 459 nnb.init_simple bL-1_2;
#X obj 267 94 nnb.init_simple wL-2_0;
#X obj 267 124 nnb.init_simple bL-2_0;
#X obj 267 154 nnb.init_simple wL-2_1;
#X obj 267 184 nnb.init_simple bL-2_1;
#X obj 267 213 nnb.init_simple wL-2_2;
#X obj 267 243 nnb.init_simple bL-2_2;
#X obj 525 13 r \$0_ns;
#X obj 116 22 inlet;
#X obj 268 508 nnb.init_simple wL-0_0;
#X obj 268 539 nnb.init_simple bL-0_0;
#X connect 12 0 6 1;
#X connect 12 0 11 1;
#X connect 12 0 10 1;
#X connect 12 0 9 1;
#X connect 12 0 8 1;
#X connect 12 0 7 1;
#X connect 12 0 5 1;
#X connect 12 0 4 1;
#X connect 12 0 3 1;
#X connect 12 0 2 1;
#X connect 12 0 1 1;
#X connect 12 0 0 1;
#X connect 12 0 14 1;
#X connect 12 0 15 1;
#X connect 13 0 6 0;
#X connect 13 0 11 0;
#X connect 13 0 10 0;
#X connect 13 0 9 0;
#X connect 13 0 8 0;
#X connect 13 0 7 0;
#X connect 13 0 5 0;
#X connect 13 0 4 0;
#X connect 13 0 3 0;
#X connect 13 0 2 0;
#X connect 13 0 1 0;
#X connect 13 0 0 0;
#X connect 13 0 14 0;
#X connect 13 0 15 0;
#X restore 35 267 pd initialize_params;
#X msg 35 236 bang;
#N canvas 1515 734 1264 668 neuron_1 0;
#X obj 481 380 nnb.neuron_1, f 29;
#X msg 739 187 position 0;
#X msg 749 220 activation tanh;
#X obj 736 380 r \$0_ns;
#X obj 881 54 r \$0_init;
#X obj 595 54 inlet activation;
#X obj 481 54 inlet index;
#X obj 102 102 cnv 23 116 56 empty empty L-2_0 20 12 0 16 #dfdfdf #000000 0;
#X obj 481 423 outlet index;
#X obj 710 423 outlet activation;
#X msg 729 154 layer 2;
#X connect 0 0 8 0;
#X connect 0 1 9 0;
#X connect 1 0 0 0;
#X connect 2 0 0 0;
#X connect 3 0 0 2;
#X connect 4 0 10 0;
#X connect 4 0 2 0;
#X connect 4 0 1 0;
#X connect 5 0 0 1;
#X connect 6 0 0 0;
#X connect 10 0 0 0;
#X coords 0 -1 1 1 120 60 2 100 100;
#X restore 407 187 pd neuron_1;
#N canvas 1511 730 1264 668 neuron_1 0;
#X obj 481 380 nnb.neuron_1, f 29;
#X msg 749 220 activation tanh;
#X obj 736 380 r \$0_ns;
#X obj 881 54 r \$0_init;
#X obj 595 54 inlet activation;
#X obj 481 54 inlet index;
#X obj 102 102 cnv 23 116 56 empty empty L-2_1 20 12 0 16 #dfdfdf #000000 0;
#X obj 481 423 outlet index;
#X obj 710 423 outlet activation;
#X msg 739 187 position 1;
#X msg 729 154 layer 2;
#X connect 0 0 7 0;
#X connect 0 1 8 0;
#X connect 1 0 0 0;
#X connect 2 0 0 2;
#X connect 3 0 10 0;
#X connect 3 0 1 0;
#X connect 3 0 9 0;
#X connect 4 0 0 1;
#X connect 5 0 0 0;
#X connect 9 0 0 0;
#X connect 10 0 0 0;
#X coords 0 -1 1 1 120 60 2 100 100;
#X restore 597 187 pd neuron_1;
#N canvas 1494 622 1264 668 neuron_1 0;
#X obj 481 380 nnb.neuron_1, f 29;
#X msg 749 220 activation tanh;
#X obj 736 380 r \$0_ns;
#X obj 881 54 r \$0_init;
#X obj 595 54 inlet activation;
#X obj 481 54 inlet index;
#X obj 102 102 cnv 23 116 56 empty empty L-2_2 20 12 0 16 #dfdfdf #000000 0;
#X obj 481 423 outlet index;
#X obj 710 423 outlet activation;
#X msg 739 187 position 2;
#X msg 729 154 layer 2;
#X connect 0 0 7 0;
#X connect 0 1 8 0;
#X connect 1 0 0 0;
#X connect 2 0 0 2;
#X connect 3 0 10 0;
#X connect 3 0 1 0;
#X connect 3 0 9 0;
#X connect 4 0 0 1;
#X connect 5 0 0 0;
#X connect 9 0 0 0;
#X connect 10 0 0 0;
#X coords 0 -1 1 1 120 60 2 100 100;
#X restore 757 187 pd neuron_1;
#X obj 684 112 t f f f;
#N canvas 1498 658 1264 668 neuron_1 0;
#X msg 759 220 activation tanh;
#X obj 738 349 r \$0_ns;
#X obj 801 54 r \$0_init;
#X obj 301 54 inlet index;
#X obj 102 102 cnv 23 116 56 empty empty L-1_0 20 12 0 16 #dfdfdf #000000 0;
#X obj 301 423 outlet index;
#X obj 738 423 outlet activation;
#X obj 301 380 nnb.neuron_3, f 55;
#X msg 739 154 layer 1;
#X msg 749 187 position 0;
#X obj 410 54 inlet a_0;
#X obj 519 54 inlet a_1;
#X obj 629 54 inlet a_2;
#X connect 0 0 7 0;
#X connect 1 0 7 4;
#X connect 2 0 8 0;
#X connect 2 0 0 0;
#X connect 2 0 9 0;
#X connect 3 0 7 0;
#X connect 7 0 5 0;
#X connect 7 1 6 0;
#X connect 8 0 7 0;
#X connect 9 0 7 0;
#X connect 10 0 7 1;
#X connect 11 0 7 2;
#X connect 12 0 7 3;
#X coords 0 -1 1 1 120 60 2 100 100;
#X restore 407 358 pd neuron_1;
#N canvas 1506 730 1264 668 neuron_1 0;
#X msg 759 220 activation tanh;
#X obj 738 349 r \$0_ns;
#X obj 801 54 r \$0_init;
#X obj 301 54 inlet index;
#X obj 102 102 cnv 23 116 56 empty empty L-1_1 20 12 0 16 #dfdfdf #000000 0;
#X obj 301 423 outlet index;
#X obj 738 423 outlet activation;
#X obj 301 380 nnb.neuron_3, f 55;
#X msg 739 154 layer 1;
#X obj 410 54 inlet a_0;
#X obj 519 54 inlet a_1;
#X obj 629 54 inlet a_2;
#X msg 749 187 position 1;
#X connect 0 0 7 0;
#X connect 1 0 7 4;
#X connect 2 0 8 0;
#X connect 2 0 0 0;
#X connect 2 0 12 0;
#X connect 3 0 7 0;
#X connect 7 0 5 0;
#X connect 7 1 6 0;
#X connect 8 0 7 0;
#X connect 9 0 7 1;
#X connect 10 0 7 2;
#X connect 11 0 7 3;
#X connect 12 0 7 0;
#X coords 0 -1 1 1 120 60 2 100 100;
#X restore 597 358 pd neuron_1;
#N canvas 1506 730 1264 668 neuron_1 0;
#X msg 759 220 activation tanh;
#X obj 738 349 r \$0_ns;
#X obj 801 54 r \$0_init;
#X obj 301 54 inlet index;
#X obj 102 102 cnv 23 116 56 empty empty L-1_2 20 12 0 16 #dfdfdf #000000 0;
#X obj 301 423 outlet index;
#X obj 738 423 outlet activation;
#X obj 301 380 nnb.neuron_3, f 55;
#X msg 739 154 layer 1;
#X obj 410 54 inlet a_0;
#X obj 519 54 inlet a_1;
#X obj 629 54 inlet a_2;
#X msg 749 187 position 2;
#X connect 0 0 7 0;
#X connect 1 0 7 4;
#X connect 2 0 8 0;
#X connect 2 0 0 0;
#X connect 2 0 12 0;
#X connect 3 0 7 0;
#X connect 7 0 5 0;
#X connect 7 1 6 0;
#X connect 8 0 7 0;
#X connect 9 0 7 1;
#X connect 10 0 7 2;
#X connect 11 0 7 3;
#X connect 12 0 7 0;
#X coords 0 -1 1 1 120 60 2 100 100;
#X restore 757 358 pd neuron_1;
#N canvas 1506 730 1264 668 neuron_1 0;
#X obj 738 349 r \$0_ns;
#X obj 801 54 r \$0_init;
#X obj 301 54 inlet index;
#X obj 102 102 cnv 23 116 56 empty empty L-0_0 20 12 0 16 #dfdfdf #000000 0;
#X obj 301 423 outlet index;
#X obj 738 423 outlet activation;
#X obj 301 380 nnb.neuron_3, f 55;
#X msg 749 187 position 0;
#X obj 410 54 inlet a_0;
#X obj 519 54 inlet a_1;
#X obj 629 54 inlet a_2;
#X msg 739 154 layer 0;
#X msg 759 220 activation linear;
#X connect 0 0 6 4;
#X connect 1 0 11 0;
#X connect 1 0 12 0;
#X connect 1 0 7 0;
#X connect 2 0 6 0;
#X connect 6 0 4 0;
#X connect 6 1 5 0;
#X connect 7 0 6 0;
#X connect 8 0 6 1;
#X connect 9 0 6 2;
#X connect 10 0 6 3;
#X connect 11 0 6 0;
#X connect 12 0 6 0;
#X coords 0 -1 1 1 120 60 2 100 100;
#X restore 597 518 pd neuron_1;
#N canvas 0 50 450 250 (subpatch) 0;
#X array \$0_Y_0 4 float 3;
#A 0 -0.728578 -0.700027 0.471439 -0.257149;
#X coords 0 1 4 -1 200 140 1;
#X restore 69 697 graph;
#X obj 597 583 sel 3;
#X obj 597 611 s \$0_backprop_init;
#X obj 1162 21 r \$0_backprop_init;
#X obj 1162 59 nnb.outer_dz;
#X obj 1290 58 r \$0_ns;
#X obj 1162 230 nnb.backstep;
#X msg 1236 92 layer_number 0;
#X msg 1246 122 layer_dims 1 3;
#X msg 1256 151 activation linear;
#X msg 1266 181 skip_dz 1;
#X obj 1291 231 r \$0_ns;
#X obj 1162 390 nnb.backstep;
#X obj 1291 391 r \$0_ns;
#X msg 1236 272 layer_number 1;
#X msg 1246 302 layer_dims 3 3;
#X msg 1256 331 activation tanh;
#X obj 1162 570 nnb.backstep;
#X obj 1291 571 r \$0_ns;
#X msg 1256 491 activation tanh;
#X msg 1266 521 initial_layer 1;
#X msg 1245 462 layer_dims 3 1;
#X msg 1236 432 layer_number 2;
#X obj 89 530 print;
#X obj 93 467 bng 23 250 50 0 empty empty empty 0 -12 0 16 #fcfcfc #000000 #000000;
#X msg 98 155 bang;
#X obj 89 502 array get \$0_dwL-1_2;
#X obj 1162 757 nnb.update_layer_params;
#X msg 1221 685 layer_number 0;
#X msg 1231 715 num_units 1;
#X msg 1211 655 alpha \$1;
#X obj 1211 625 r \$0_alpha;
#X obj 229 85 nbx 5 21 0 4 0 1 empty \$0_init learning_rate 0 -12 0 16 #fcfcfc #000000 #000000 0.1 256;
#X obj 229 116 s \$0_alpha;
#X obj 1370 758 r \$0_ns;
#X obj 1162 947 nnb.update_layer_params;
#X msg 1211 845 alpha \$1;
#X obj 1211 815 r \$0_alpha;
#X obj 1370 948 r \$0_ns;
#X msg 1221 874 layer_number 1;
#X obj 1162 1127 nnb.update_layer_params;
#X msg 1211 1025 alpha \$1;
#X obj 1211 995 r \$0_alpha;
#X obj 1370 1128 r \$0_ns;
#X msg 1221 1053 layer_number 2;
#X msg 1231 905 num_units 3;
#X msg 1231 1085 num_units 3;
#X obj 495 12 tgl 23 0 empty empty empty 0 -12 0 16 #fcfcfc #000000 #000000 0 1;
#X obj 495 47 metro 200;
#X connect 1 0 7 0;
#X connect 2 0 3 0;
#X connect 4 0 5 2;
#X connect 5 0 13 0;
#X connect 5 1 16 0;
#X connect 6 0 5 1;
#X connect 7 0 8 0;
#X connect 7 1 2 0;
#X connect 12 0 11 0;
#X connect 13 0 14 0;
#X connect 13 1 17 1;
#X connect 13 1 18 1;
#X connect 13 1 19 1;
#X connect 14 0 15 0;
#X connect 14 1 17 2;
#X connect 14 1 18 2;
#X connect 14 1 19 2;
#X connect 15 0 17 0;
#X connect 15 1 17 3;
#X connect 15 1 18 3;
#X connect 15 1 19 3;
#X connect 16 0 13 1;
#X connect 16 1 14 1;
#X connect 16 2 15 1;
#X connect 17 0 18 0;
#X connect 17 1 20 1;
#X connect 18 0 19 0;
#X connect 18 1 20 2;
#X connect 19 0 20 0;
#X connect 19 1 20 3;
#X connect 20 0 22 0;
#X connect 22 0 23 0;
#X connect 24 0 25 0;
#X connect 25 0 27 0;
#X connect 26 0 25 1;
#X connect 27 0 33 0;
#X connect 28 0 27 0;
#X connect 29 0 27 0;
#X connect 30 0 27 0;
#X connect 31 0 27 0;
#X connect 32 0 27 1;
#X connect 33 0 38 0;
#X connect 34 0 33 1;
#X connect 35 0 33 0;
#X connect 36 0 33 0;
#X connect 37 0 33 0;
#X connect 38 0 48 0;
#X connect 39 0 38 1;
#X connect 40 0 38 0;
#X connect 41 0 38 0;
#X connect 42 0 38 0;
#X connect 43 0 38 0;
#X connect 45 0 47 0;
#X connect 46 0 9 0;
#X connect 47 0 44 0;
#X connect 48 0 56 0;
#X connect 49 0 48 0;
#X connect 50 0 48 0;
#X connect 51 0 48 0;
#X connect 52 0 51 0;
#X connect 53 0 54 0;
#X connect 55 0 48 1;
#X connect 56 0 61 0;
#X connect 57 0 56 0;
#X connect 58 0 57 0;
#X connect 59 0 56 1;
#X connect 60 0 56 0;
#X connect 62 0 61 0;
#X connect 63 0 62 0;
#X connect 64 0 61 1;
#X connect 65 0 61 0;
#X connect 66 0 56 0;
#X connect 67 0 61 0;
#X connect 68 0 69 0;
#X connect 69 0 5 0;
