#N canvas 4 70 1712 1332 16;
#X msg 28 15 bang;
#X obj 28 44 f \$0;
#X obj 28 72 s \$0_ns;
#X obj 493 152 r \$0_ns;
#X obj 317 76 bng 23 250 50 0 empty empty empty 0 -12 0 16 #fcfcfc #000000 #000000;
#N canvas 323 70 1337 1332 arrays 0;
#X obj 265 639 array define -k \$0_aL-1_0 4;
#A 0 0 0 0 0;
#X obj 265 672 array define -k \$0_zL-1_0 4;
#A 0 0 0 0 0;
#X obj 284 705 array define -k \$0_wL-1_0 4;
#A 0 0 0 0 0;
#X obj 284 738 array define -k \$0_bL-1_0 1;
#A 0 0;
#X obj 265 778 array define -k \$0_aL-1_1 4;
#A 0 0 0 0 0;
#X obj 265 812 array define -k \$0_zL-1_1 4;
#A 0 0 0 0 0;
#X obj 284 845 array define -k \$0_wL-1_1 4;
#A 0 0 0 0 0;
#X obj 284 878 array define -k \$0_bL-1_1 1;
#A 0 0;
#X obj 265 919 array define -k \$0_aL-1_2 4;
#A 0 0 0 0 0;
#X obj 265 952 array define -k \$0_zL-1_2 4;
#A 0 0 0 0 0;
#X obj 284 985 array define -k \$0_wL-1_2 4;
#A 0 0 0 0 0;
#X obj 284 1018 array define -k \$0_bL-1_2 1;
#A 0 0;
#X obj 265 1059 array define -k \$0_aL-1_3 4;
#A 0 0 0 0 0;
#X obj 265 1092 array define -k \$0_zL-1_3 4;
#A 0 0 0 0 0;
#X obj 284 1125 array define -k \$0_wL-1_3 4;
#A 0 0 0 0 0;
#X obj 284 1158 array define -k \$0_bL-1_3 1;
#A 0 0;
#X obj 585 639 array define -k \$0_daL-1_0 4;
#A 0 54 81 108 135;
#X obj 585 672 array define -k \$0_dzL-1_0 4;
#A 0 0 0 0 0;
#X obj 584 705 array define -k \$0_dwL-1_0 4;
#A 0 0 0 0 0;
#X obj 584 738 array define -k \$0_dbL-1_0 1;
#A 0 0;
#X obj 585 779 array define -k \$0_daL-1_1 4;
#A 0 60 90 120 150;
#X obj 585 812 array define -k \$0_dzL-1_1 4;
#A 0 0 0 0 0;
#X obj 584 845 array define -k \$0_dwL-1_1 4;
#A 0 0 0 0 0;
#X obj 584 878 array define -k \$0_dbL-1_1 1;
#A 0 0;
#X obj 585 919 array define -k \$0_daL-1_2 4;
#A 0 66 99 132 165;
#X obj 585 952 array define -k \$0_dzL-1_2 4;
#A 0 0 0 0 0;
#X obj 585 984 array define -k \$0_dwL-1_2 4;
#A 0 0 0 0 0;
#X obj 584 1018 array define -k \$0_dbL-1_2 1;
#A 0 0;
#X obj 585 1059 array define -k \$0_daL-1_3 4;
#A 0 72 108 144 180;
#X obj 585 1092 array define -k \$0_dzL-1_3 4;
#A 0 0 0 0 0;
#X obj 584 1125 array define -k \$0_dwL-1_3 4;
#A 0 0 0 0 0;
#X obj 584 1158 array define -k \$0_dbL-1_3 1;
#A 0 0;
#X msg 72 13 resize 4;
#X text 918 28 // Use the "style" message to select \; 0: point \; 1: polygon \; 2: bezier \; Use the "resize" message to resize arrays! \; Use the "const" message to reset arrays \;;
#X obj 265 49 array define -k \$0_aL-0_0 4;
#A 0 0.1 0.2 0.3 0.4;
#X obj 265 82 array define -k \$0_zL-0_0 4;
#A 0 0.3 0.4 0.5 0.6;
#X obj 284 115 array define -k \$0_wL-0_0 4;
#A 0 1 2 3 4;
#X obj 284 148 array define -k \$0_bL-0_0 1;
#A 0 0;
#X obj 265 188 array define -k \$0_aL-0_1 4;
#A 0 0.5 0.6 0.7 0.8;
#X obj 265 222 array define -k \$0_zL-0_1 4;
#A 0 0.7 0.8 0.9 0.1;
#X obj 284 255 array define -k \$0_wL-0_1 4;
#A 0 5 6 7 8;
#X obj 284 288 array define -k \$0_bL-0_1 1;
#A 0 0;
#X obj 265 329 array define -k \$0_aL-0_2 4;
#A 0 0.9 0.1 0.2 0.3;
#X obj 265 362 array define -k \$0_zL-0_2 4;
#A 0 0.2 0.3 0.4 0.5;
#X obj 284 395 array define -k \$0_wL-0_2 4;
#A 0 9 10 11 12;
#X obj 284 428 array define -k \$0_bL-0_2 1;
#A 0 0;
#X obj 265 469 array define -k \$0_aL-0_3 4;
#A 0 0.4 0.5 0.6 0.7;
#X obj 265 502 array define -k \$0_zL-0_3 4;
#A 0 -0.6 0.7 0.8 0.9;
#X obj 284 534 array define -k \$0_wL-0_3 4;
#A 0 0 0 0 0;
#X obj 284 568 array define -k \$0_bL-0_3 1;
#A 0 0;
#X obj 585 49 array define -k \$0_daL-0_0 4;
#A 0 0 0 0 0;
#X obj 585 82 array define -k \$0_dzL-0_0 4;
#A 0 1 2 3 4;
#X obj 584 115 array define -k \$0_dwL-0_0 4;
#A 0 0 0 0 0;
#X obj 584 148 array define -k \$0_dbL-0_0 1;
#A 0 0;
#X obj 585 189 array define -k \$0_daL-0_1 4;
#A 0 0 0 0 0;
#X obj 585 222 array define -k \$0_dzL-0_1 4;
#A 0 2 3 4 5;
#X obj 584 255 array define -k \$0_dwL-0_1 4;
#A 0 0 0 0 0;
#X obj 584 288 array define -k \$0_dbL-0_1 1;
#A 0 0;
#X obj 585 329 array define -k \$0_daL-0_2 4;
#A 0 0.6 0.7 0.8 0.9;
#X obj 585 362 array define -k \$0_dzL-0_2 4;
#A 0 3 4 5 6;
#X obj 584 395 array define -k \$0_dwL-0_2 4;
#A 0 0 0 0 0;
#X obj 584 428 array define -k \$0_dbL-0_2 1;
#A 0 0;
#X obj 585 469 array define -k \$0_daL-0_3 4;
#A 0 -0.4 0.11 0.12 0.13;
#X obj 585 501 array define -k \$0_dzL-0_3 4;
#A 0 -0.0008 0.11 0.12 0.13;
#X obj 584 535 array define -k \$0_dwL-0_3 4;
#A 0 0 0 0 0;
#X obj 584 568 array define -k \$0_dbL-0_3 1;
#A 0 0;
#X connect 32 0 34 0;
#X restore 44 115 pd arrays;
#N canvas 1750 328 427 257 array_args_safe 0;
#X obj 81 24 inlet message;
#N canvas 1448 515 223 141 ns_symbol 0;
#X obj 99 46 r \$0_ns;
#X obj 29 15 inlet raw_message;
#X obj 29 73 outlet ns_message;
#X obj 29 45 d0_safe;
#X connect 0 0 3 1;
#X connect 1 0 3 0;
#X connect 3 0 2 0;
#X restore 81 80 pd ns_symbol;
#X obj 81 164 outlet values;
#X obj 222 163 outlet name;
#X obj 81 52 list split 1, f 34;
#X obj 81 136 list store;
#X obj 81 108 t b s, f 18;
#X connect 0 0 4 0;
#X connect 1 0 6 0;
#X connect 4 0 1 0;
#X connect 4 1 5 1;
#X connect 5 0 2 0;
#X connect 6 0 5 0;
#X connect 6 1 3 0;
#X restore 27 858 pd array_args_safe;
#X msg 27 766 y_hat -0.5 -0.25 0.05 0.25;
#X obj 27 906 array set;
#X msg 47 796 Y 0.75 1 0 0.1;
#X msg 24 965 bang;
#X obj 24 993 t b b;
#N canvas 1472 731 228 137 ns_symbol_safe 0;
#X obj 99 46 r \$0_ns;
#X obj 29 15 inlet raw_message;
#X obj 29 73 outlet ns_message;
#X obj 29 45 d0_safe;
#X connect 0 0 3 1;
#X connect 1 0 3 0;
#X connect 3 0 2 0;
#X restore 93 1094 pd ns_symbol_safe;
#X obj 24 1172 array get;
#X obj 24 1200 print;
#N canvas 663 643 980 721 initialize_arrays 0;
#N canvas 1750 328 427 257 array_args_safe 0;
#X obj 81 24 inlet message;
#N canvas 1448 515 223 141 ns_symbol 0;
#X obj 99 46 r \$0_ns;
#X obj 29 15 inlet raw_message;
#X obj 29 73 outlet ns_message;
#X obj 29 45 d0_safe;
#X connect 0 0 3 1;
#X connect 1 0 3 0;
#X connect 3 0 2 0;
#X restore 81 80 pd ns_symbol;
#X obj 81 164 outlet values;
#X obj 222 163 outlet name;
#X obj 81 52 list split 1, f 34;
#X obj 81 136 list store;
#X obj 81 108 t b s, f 18;
#X connect 0 0 4 0;
#X connect 1 0 6 0;
#X connect 4 0 1 0;
#X connect 4 1 5 1;
#X connect 5 0 2 0;
#X connect 6 0 5 0;
#X connect 6 1 3 0;
#X restore 580 426 pd array_args_safe;
#X obj 580 459 array set;
#X msg 46 35 dzL-0_0 1 2 3 4;
#X msg 206 35 dzL-0_1 2 3 4 5;
#X msg 376 35 dzL-0_2 3 4 5 6;
#X msg 42 80 wL-0_0 1 2 3 4;
#X msg 202 80 wL-0_1 5 6 7 8;
#X msg 382 80 wL-0_2 9 10 11 12;
#X connect 0 0 1 0;
#X connect 0 1 1 2;
#X connect 2 0 0 0;
#X connect 3 0 0 0;
#X connect 4 0 0 0;
#X connect 5 0 0 0;
#X connect 6 0 0 0;
#X connect 7 0 0 0;
#X restore 24 167 pd initialize_arrays;
#X msg 409 20 layer_number 0;
#X obj 432 535 print;
#X obj 509 540 print;
#X msg 455 434 foo baz;
#X msg 544 439 bar 8;
#X obj 435 488 route bar foo;
#X msg 433 79 activation relu;
#X msg 441 113 leak 0.002;
#X obj 189 375 nnb.backstep;
#X obj 364 154 nnb.backstep;
#X obj 500 685 r \$0_ns;
#X msg 423 49 layer_dims 3 4;
#X obj 1114 189 abs;
#X floatatom 1113 155 5 0 0 0 - - - 0;
#X floatatom 1108 233 5 0 0 0 - - - 0;
#X msg 93 1056 daL-1_0;
#X obj 770 685 r \$0_ns;
#X floatatom 627 679 5 0 0 0 - - - 0;
#X obj 643 760 print;
#X obj 376 721 nnb.array_name da;
#X obj 646 721 nnb.array_name da;
#X obj 925 834 array set \$0_daL-0_0;
#X msg 376 749 \; \$1 const 0;
#X msg 709 680 1;
#X msg 439 679 1;
#X msg 365 679 0;
#X connect 0 0 1 0;
#X connect 1 0 2 0;
#X connect 3 0 25 1;
#X connect 4 0 25 0;
#X connect 6 0 8 0;
#X connect 6 1 8 2;
#X connect 7 0 6 0;
#X connect 9 0 6 0;
#X connect 10 0 11 0;
#X connect 11 0 13 0;
#X connect 11 1 31 0;
#X connect 12 0 13 2;
#X connect 13 0 14 0;
#X connect 16 0 25 0;
#X connect 19 0 21 0;
#X connect 20 0 21 0;
#X connect 21 0 17 0;
#X connect 21 1 18 0;
#X connect 22 0 25 0;
#X connect 23 0 25 0;
#X connect 26 0 35 2;
#X connect 27 0 25 0;
#X connect 28 0 30 0;
#X connect 29 0 28 0;
#X connect 31 0 12 0;
#X connect 32 0 36 2;
#X connect 33 0 36 0;
#X connect 35 0 38 0;
#X connect 36 0 34 0;
#X connect 39 0 36 1;
#X connect 40 0 35 1;
#X connect 41 0 35 0;
