#N canvas 342 108 1117 1294 16;
#X msg 28 15 bang;
#X obj 28 44 f \$0;
#X obj 28 72 s \$0_ns;
#X obj 776 166 r \$0_ns;
#N canvas 355 82 1349 1320 arrays 0;
#X obj 262 156 array define -k \$0_aL-1_0 4;
#A 0 0 0 0 0;
#X obj 262 189 array define -k \$0_zL-1_0 4;
#A 0 0 0 0 0;
#X obj 281 222 array define -k \$0_wL-1_0 4;
#A 0 -0.5 0.1 0.1 -0.4;
#X obj 281 255 array define -k \$0_bL-1_0 1;
#A 0 0.1;
#X obj 262 295 array define -k \$0_aL-1_1 4;
#A 0 0 0 0 0;
#X obj 262 329 array define -k \$0_zL-1_1 4;
#A 0 0 0 0 0;
#X obj 281 362 array define -k \$0_wL-1_1 4;
#A 0 -0.1 -0.4 -0.5 0.3;
#X obj 281 395 array define -k \$0_bL-1_1 1;
#A 0 -0.3;
#X obj 262 436 array define -k \$0_aL-1_2 4;
#A 0 0 0 0 0;
#X obj 262 469 array define -k \$0_zL-1_2 4;
#A 0 0 0 0 0;
#X obj 281 502 array define -k \$0_wL-1_2 4;
#A 0 -0.1 0.4 0.3 -0.1;
#X obj 281 535 array define -k \$0_bL-1_2 1;
#A 0 -0.4;
#X obj 262 576 array define -k \$0_aL-1_3 4;
#A 0 0 0 0 0;
#X obj 262 609 array define -k \$0_zL-1_3 4;
#A 0 0 0 0 0;
#X obj 281 642 array define -k \$0_wL-1_3 4;
#A 0 0.3 0.3 -0.1 0.2;
#X obj 281 675 array define -k \$0_bL-1_3 1;
#A 0 0.1;
#X obj 582 156 array define -k \$0_daL-1_0 4;
#A 0 -0.032 -0.091 -0.1125 -0.192;
#X obj 582 189 array define -k \$0_dzL-1_0 4;
#A 0 0 0 0 0;
#X obj 581 222 array define -k \$0_dwL-1_0 4;
#A 0 0 0 0 0;
#X obj 581 255 array define -k \$0_dbL-1_0 1;
#A 0 0;
#X obj 582 296 array define -k \$0_daL-1_1 4;
#A 0 0.0192 0.0546 0.0675 0.1152;
#X obj 582 329 array define -k \$0_dzL-1_1 4;
#A 0 0 0 0 0;
#X obj 581 362 array define -k \$0_dwL-1_1 4;
#A 0 0 0 0 0;
#X obj 581 395 array define -k \$0_dbL-1_1 1;
#A 0 0;
#X obj 582 436 array define -k \$0_daL-1_2 4;
#A 0 0.0128 0.0364 0.045 0.0768;
#X obj 582 469 array define -k \$0_dzL-1_2 4;
#A 0 0 0 0 0;
#X obj 582 501 array define -k \$0_dwL-1_2 4;
#A 0 0 0 0 0;
#X obj 581 535 array define -k \$0_dbL-1_2 1;
#A 0 0;
#X obj 582 576 array define -k \$0_daL-1_3 4;
#A 0 0.0128 0.0364 0.045 0.0768;
#X obj 582 609 array define -k \$0_dzL-1_3 4;
#A 0 0 0 0 0;
#X obj 581 642 array define -k \$0_dwL-1_3 4;
#A 0 0 0 0 0;
#X obj 581 675 array define -k \$0_dbL-1_3 1;
#A 0 0;
#X msg 72 13 resize 4;
#X text 918 28 // Use the "style" message to select \; 0: point \; 1: polygon \; 2: bezier \; Use the "resize" message to resize arrays! \; Use the "const" message to reset arrays \;;
#X obj 260 18 array define -k \$0_aL-0_0 4;
#A 0 0.6 -0.3 0.5 0.2;
#X obj 260 51 array define -k \$0_zL-0_0 4;
#A 0 0.7 -0.4 0.6 0.2;
#X obj 279 84 array define -k \$0_wL-0_0 4;
#A 0 -0.5 0.3 0.2 0.2;
#X obj 279 117 array define -k \$0_bL-0_0 1;
#A 0 -0.5;
#X obj 580 18 array define -k \$0_daL-0_0 4;
#A 0 0.1 0.2 0.3 0.4;
#X obj 580 51 array define -k \$0_dzL-0_0 4;
#A 0 0.064 0.182 0.225 0.384;
#X obj 579 84 array define -k \$0_dwL-0_0 4;
#A 0 0 0 0 0;
#X obj 579 117 array define -k \$0_dbL-0_0 1;
#A 0 0.21375;
#X obj 264 735 array define -k \$0_aL-2_0 4;
#A 0 0 0 0 0;
#X obj 264 768 array define -k \$0_zL-2_0 4;
#A 0 0 0 0 0;
#X obj 283 801 array define -k \$0_wL-2_0 4;
#A 0 0 0 0 0;
#X obj 283 834 array define -k \$0_bL-2_0 1;
#A 0 0;
#X obj 264 874 array define -k \$0_aL-2_1 4;
#A 0 0 0 0 0;
#X obj 264 908 array define -k \$0_zL-2_1 4;
#A 0 0 0 0 0;
#X obj 283 941 array define -k \$0_wL-2_1 4;
#A 0 0 0 0 0;
#X obj 283 974 array define -k \$0_bL-2_1 1;
#A 0 0;
#X obj 264 1015 array define -k \$0_aL-2_2 4;
#A 0 0 0 0 0;
#X obj 264 1048 array define -k \$0_zL-2_2 4;
#A 0 0 0 0 0;
#X obj 283 1081 array define -k \$0_wL-2_2 4;
#A 0 0 0 0 0;
#X obj 283 1114 array define -k \$0_bL-2_2 1;
#A 0 0;
#X obj 264 1155 array define -k \$0_aL-2_3 4;
#A 0 0 0 0 0;
#X obj 264 1188 array define -k \$0_zL-2_3 4;
#A 0 0 0 0 0;
#X obj 283 1220 array define -k \$0_wL-2_3 4;
#A 0 0 0 0 0;
#X obj 283 1254 array define -k \$0_bL-2_3 1;
#A 0 0;
#X obj 584 735 array define -k \$0_daL-2_0 4;
#A 0 0 0 0 0;
#X obj 584 768 array define -k \$0_dzL-2_0 4;
#A 0 0 0 0 0;
#X obj 583 801 array define -k \$0_dwL-2_0 4;
#A 0 0 0 0 0;
#X obj 583 834 array define -k \$0_dbL-2_0 1;
#A 0 0;
#X obj 584 875 array define -k \$0_daL-2_1 4;
#A 0 0 0 0 0;
#X obj 584 908 array define -k \$0_dzL-2_1 4;
#A 0 0 0 0 0;
#X obj 583 941 array define -k \$0_dwL-2_1 4;
#A 0 0 0 0 0;
#X obj 583 974 array define -k \$0_dbL-2_1 1;
#A 0 0;
#X obj 584 1015 array define -k \$0_daL-2_2 4;
#A 0 0 0 0 0;
#X obj 584 1048 array define -k \$0_dzL-2_2 4;
#A 0 0 0 0 0;
#X obj 583 1081 array define -k \$0_dwL-2_2 4;
#A 0 0 0 0 0;
#X obj 583 1114 array define -k \$0_dbL-2_2 1;
#A 0 0;
#X obj 584 1155 array define -k \$0_daL-2_3 4;
#A 0 0 0 0 0;
#X obj 584 1187 array define -k \$0_dzL-2_3 4;
#A 0 0 0 0 0;
#X obj 583 1221 array define -k \$0_dwL-2_3 4;
#A 0 0 0 0 0;
#X obj 583 1254 array define -k \$0_dbL-2_3 1;
#A 0 0;
#X obj 940 169 array define -k \$0_Y_0 4;
#A 0 0.5 -0.2 0.9 -0.3;
#X msg 83 47 const 0;
#X connect 75 0 34 0;
#X connect 75 0 57 0;
#X connect 75 0 56 0;
#X connect 75 0 55 0;
#X connect 75 0 54 0;
#X connect 75 0 53 0;
#X connect 75 0 52 0;
#X connect 75 0 51 0;
#X connect 75 0 50 0;
#X connect 75 0 49 0;
#X connect 75 0 48 0;
#X connect 75 0 47 0;
#X connect 75 0 46 0;
#X connect 75 0 45 0;
#X connect 75 0 44 0;
#X connect 75 0 43 0;
#X connect 75 0 42 0;
#X connect 75 0 37 0;
#X connect 75 0 36 0;
#X connect 75 0 35 0;
#X connect 75 0 15 0;
#X connect 75 0 14 0;
#X connect 75 0 13 0;
#X connect 75 0 12 0;
#X connect 75 0 11 0;
#X connect 75 0 10 0;
#X connect 75 0 9 0;
#X connect 75 0 8 0;
#X connect 75 0 7 0;
#X connect 75 0 6 0;
#X connect 75 0 5 0;
#X connect 75 0 4 0;
#X connect 75 0 3 0;
#X connect 75 0 2 0;
#X connect 75 0 1 0;
#X connect 75 0 0 0;
#X connect 75 0 38 0;
#X connect 75 0 73 0;
#X connect 75 0 72 0;
#X connect 75 0 71 0;
#X connect 75 0 70 0;
#X connect 75 0 69 0;
#X connect 75 0 68 0;
#X connect 75 0 67 0;
#X connect 75 0 66 0;
#X connect 75 0 65 0;
#X connect 75 0 64 0;
#X connect 75 0 63 0;
#X connect 75 0 62 0;
#X connect 75 0 61 0;
#X connect 75 0 60 0;
#X connect 75 0 59 0;
#X connect 75 0 58 0;
#X connect 75 0 41 0;
#X connect 75 0 40 0;
#X connect 75 0 39 0;
#X connect 75 0 31 0;
#X connect 75 0 30 0;
#X connect 75 0 29 0;
#X connect 75 0 28 0;
#X connect 75 0 27 0;
#X connect 75 0 26 0;
#X connect 75 0 25 0;
#X connect 75 0 24 0;
#X connect 75 0 23 0;
#X connect 75 0 22 0;
#X connect 75 0 21 0;
#X connect 75 0 20 0;
#X connect 75 0 19 0;
#X connect 75 0 18 0;
#X connect 75 0 17 0;
#X connect 75 0 16 0;
#X restore 44 115 pd arrays;
#N canvas 1750 328 427 257 array_args_safe 0;
#X obj 81 24 inlet message;
#N canvas 1448 515 223 141 ns_symbol 0;
#X obj 99 46 r \$0_ns;
#X obj 29 15 inlet raw_message;
#X obj 29 73 outlet ns_message;
#X obj 29 45 d0_safe;
#X connect 0 0 3 1;
#X connect 1 0 3 0;
#X connect 3 0 2 0;
#X restore 81 80 pd ns_symbol;
#X obj 81 164 outlet values;
#X obj 222 163 outlet name;
#X obj 81 52 list split 1, f 34;
#X obj 81 136 list store;
#X obj 81 108 t b s, f 18;
#X connect 0 0 4 0;
#X connect 1 0 6 0;
#X connect 4 0 1 0;
#X connect 4 1 5 1;
#X connect 5 0 2 0;
#X connect 6 0 5 0;
#X connect 6 1 3 0;
#X restore 25 678 pd array_args_safe;
#X msg 25 586 y_hat -0.5 -0.25 0.05 0.25;
#X obj 25 726 array set;
#X msg 45 616 Y 0.75 1 0 0.1;
#X msg 22 785 bang;
#X obj 22 813 t b b;
#N canvas 1472 731 228 137 ns_symbol_safe 0;
#X obj 99 46 r \$0_ns;
#X obj 29 15 inlet raw_message;
#X obj 29 73 outlet ns_message;
#X obj 29 45 d0_safe;
#X connect 0 0 3 1;
#X connect 1 0 3 0;
#X connect 3 0 2 0;
#X restore 91 914 pd ns_symbol_safe;
#X obj 22 992 array get;
#X obj 22 1020 print;
#N canvas 2277 603 980 721 initialize_arrays 0;
#N canvas 1750 328 427 257 array_args_safe 0;
#X obj 81 24 inlet message;
#N canvas 1448 515 223 141 ns_symbol 0;
#X obj 99 46 r \$0_ns;
#X obj 29 15 inlet raw_message;
#X obj 29 73 outlet ns_message;
#X obj 29 45 d0_safe;
#X connect 0 0 3 1;
#X connect 1 0 3 0;
#X connect 3 0 2 0;
#X restore 81 80 pd ns_symbol;
#X obj 81 164 outlet values;
#X obj 222 163 outlet name;
#X obj 81 52 list split 1, f 34;
#X obj 81 136 list store;
#X obj 81 108 t b s, f 18;
#X connect 0 0 4 0;
#X connect 1 0 6 0;
#X connect 4 0 1 0;
#X connect 4 1 5 1;
#X connect 5 0 2 0;
#X connect 6 0 5 0;
#X connect 6 1 3 0;
#X restore 470 426 pd array_args_safe;
#X obj 470 459 array set;
#X msg 46 35 dzL-0_0 1 2 3 4;
#X msg 206 35 dzL-0_1 2 3 4 5;
#X msg 376 35 dzL-0_2 3 4 5 6;
#X msg 42 80 wL-0_0 1 2 3 4;
#X msg 202 80 wL-0_1 5 6 7 8;
#X msg 374 80 wL-0_2 9 10 11 12;
#X msg 589 79 Y_0 0.5 -0.2 0.9 -0.3;
#X msg 589 44 aL-0_0 0.6 -0.3 0.5 0.2;
#X msg 642 132 zL-0_0 0.7 -0.4 0.6 0.2;
#X msg 660 179 daL-0_0 0.1 0.2 0.3 0.4;
#X connect 0 0 1 0;
#X connect 0 1 1 2;
#X connect 2 0 0 0;
#X connect 3 0 0 0;
#X connect 4 0 0 0;
#X connect 5 0 0 0;
#X connect 6 0 0 0;
#X connect 7 0 0 0;
#X connect 8 0 0 0;
#X connect 9 0 0 0;
#X connect 10 0 0 0;
#X connect 11 0 0 0;
#X restore 44 149 pd initialize_arrays;
#X msg 488 269 layer_number 0;
#X msg 540 368 leak 0.002;
#X obj 443 451 nnb.backstep, f 27;
#X obj 443 236 nnb.outer_dz;
#X msg 443 203 bang;
#X obj 972 159 print;
#X msg 972 43 bang;
#X obj 972 99 / 10;
#X obj 972 71 random 5;
#X obj 972 127 + 0.1;
#X msg 512 302 layer_dims 1 4;
#N canvas 4 86 608 506 initialize_parameters 0;
#X obj 148 110 nnb.init_simple wL-0_0;
#X obj 406 36 r \$0_ns;
#X msg 33 29 bang;
#X obj 148 180 nnb.init_simple wL-1_0;
#X obj 148 140 nnb.init_simple bL-0_0;
#X obj 148 210 nnb.init_simple wL-1_1;
#X obj 148 240 nnb.init_simple wL-1_2;
#X obj 148 270 nnb.init_simple wL-1_3;
#X obj 148 320 nnb.init_simple bL-1_0;
#X obj 148 350 nnb.init_simple bL-1_1;
#X obj 148 380 nnb.init_simple bL-1_2;
#X obj 148 410 nnb.init_simple bL-1_3;
#X connect 1 0 0 1;
#X connect 1 0 11 1;
#X connect 1 0 10 1;
#X connect 1 0 9 1;
#X connect 1 0 8 1;
#X connect 1 0 7 1;
#X connect 1 0 6 1;
#X connect 1 0 5 1;
#X connect 1 0 4 1;
#X connect 1 0 3 1;
#X connect 2 0 0 0;
#X connect 2 0 11 0;
#X connect 2 0 10 0;
#X connect 2 0 9 0;
#X connect 2 0 8 0;
#X connect 2 0 7 0;
#X connect 2 0 6 0;
#X connect 2 0 5 0;
#X connect 2 0 4 0;
#X connect 2 0 3 0;
#X restore 40 192 pd initialize_parameters;
#X msg 91 875 dzL-0_0;
#X msg 530 407 skip_dz 0;
#X msg 533 335 activation tanh;
#X connect 0 0 1 0;
#X connect 1 0 2 0;
#X connect 3 0 18 1;
#X connect 3 0 17 1;
#X connect 5 0 7 0;
#X connect 5 1 7 2;
#X connect 6 0 5 0;
#X connect 8 0 5 0;
#X connect 9 0 10 0;
#X connect 10 0 12 0;
#X connect 10 1 27 0;
#X connect 11 0 12 2;
#X connect 12 0 13 0;
#X connect 15 0 17 0;
#X connect 16 0 17 0;
#X connect 18 0 17 0;
#X connect 19 0 18 0;
#X connect 21 0 23 0;
#X connect 22 0 24 0;
#X connect 23 0 22 0;
#X connect 24 0 20 0;
#X connect 25 0 17 0;
#X connect 27 0 11 0;
#X connect 28 0 17 0;
#X connect 29 0 17 0;
