#N canvas 4 18 2787 1384 16;
#N canvas 44 88 2650 1314 arrays 0;
#X obj 577 92 array define -k \$0_aL-1_0 4;
#A 0 -nan -nan -nan -nan;
#X obj 577 125 array define -k \$0_zL-1_0 4;
#A 0 -nan -nan -nan -nan;
#X obj 636 158 array define -k \$0_wL-1_0 4;
#A 0 -nan -nan -nan -nan;
#X obj 636 191 array define -k \$0_bL-1_0 1;
#A 0 -nan;
#X obj 577 231 array define -k \$0_aL-1_1 4;
#A 0 -nan -nan -nan -nan;
#X obj 577 265 array define -k \$0_zL-1_1 4;
#A 0 -nan -nan -nan -nan;
#X obj 636 298 array define -k \$0_wL-1_1 4;
#A 0 -nan -nan -nan -nan;
#X obj 636 331 array define -k \$0_bL-1_1 1;
#A 0 -nan;
#X obj 577 372 array define -k \$0_aL-1_2 4;
#A 0 -nan -nan -nan -nan;
#X obj 577 405 array define -k \$0_zL-1_2 4;
#A 0 -nan -nan -nan -nan;
#X obj 636 438 array define -k \$0_wL-1_2 4;
#A 0 -nan -nan -nan -nan;
#X obj 636 471 array define -k \$0_bL-1_2 1;
#A 0 -nan;
#X obj 577 512 array define -k \$0_aL-1_3 4;
#A 0 -nan -nan -nan -nan;
#X obj 577 545 array define -k \$0_zL-1_3 4;
#A 0 -nan -nan -nan -nan;
#X obj 636 578 array define -k \$0_wL-1_3 4;
#A 0 -nan -nan -nan -nan;
#X obj 636 611 array define -k \$0_bL-1_3 1;
#A 0 -nan;
#X obj 957 92 array define -k \$0_daL-1_0 4;
#A 0 -nan -nan -nan -nan;
#X obj 957 125 array define -k \$0_dzL-1_0 4;
#A 0 -nan -nan -nan -nan;
#X obj 1016 158 array define -k \$0_dwL-1_0 4;
#A 0 -nan -nan -nan -nan;
#X obj 1016 191 array define -k \$0_dbL-1_0 1;
#A 0 -nan;
#X obj 957 232 array define -k \$0_daL-1_1 4;
#A 0 -nan -nan -nan -nan;
#X obj 957 265 array define -k \$0_dzL-1_1 4;
#A 0 -nan -nan -nan -nan;
#X obj 1016 298 array define -k \$0_dwL-1_1 4;
#A 0 -nan -nan -nan -nan;
#X obj 1016 331 array define -k \$0_dbL-1_1 1;
#A 0 -nan;
#X obj 957 372 array define -k \$0_daL-1_2 4;
#A 0 -nan -nan -nan -nan;
#X obj 957 405 array define -k \$0_dzL-1_2 4;
#A 0 -nan -nan -nan -nan;
#X obj 1017 437 array define -k \$0_dwL-1_2 4;
#A 0 -nan -nan -nan -nan;
#X obj 1016 471 array define -k \$0_dbL-1_2 1;
#A 0 -nan;
#X obj 957 512 array define -k \$0_daL-1_3 4;
#A 0 -nan -nan -nan -nan;
#X obj 957 545 array define -k \$0_dzL-1_3 4;
#A 0 -nan -nan -nan -nan;
#X obj 1016 578 array define -k \$0_dwL-1_3 4;
#A 0 -nan -nan -nan -nan;
#X obj 1016 611 array define -k \$0_dbL-1_3 1;
#A 0 -nan;
#X obj 124 736 array define -k \$0_aL-0_0 4;
#A 0 -nan -nan -nan -nan;
#X obj 124 769 array define -k \$0_zL-0_0 4;
#A 0 -nan -nan -nan -nan;
#X obj 183 802 array define -k \$0_wL-0_0 4;
#A 0 -nan -nan -nan -nan;
#X obj 183 835 array define -k \$0_bL-0_0 1;
#A 0 0.04913;
#X obj 120 928 array define -k \$0_daL-0_0 4;
#A 0 0 0 0 0;
#X obj 120 961 array define -k \$0_dzL-0_0 4;
#A 0 -nan -nan -nan -nan;
#X obj 179 994 array define -k \$0_dwL-0_0 4;
#A 0 -nan -nan -nan -nan;
#X obj 179 1027 array define -k \$0_dbL-0_0 1;
#A 0 -nan;
#X obj 579 721 array define -k \$0_aL-2_0 4;
#A 0 -nan -nan -nan -nan;
#X obj 579 754 array define -k \$0_zL-2_0 4;
#A 0 -nan -nan -nan -nan;
#X obj 638 787 array define -k \$0_wL-2_0 4;
#A 0 -nan -nan -nan -nan;
#X obj 638 820 array define -k \$0_bL-2_0 1;
#A 0 -nan;
#X obj 579 860 array define -k \$0_aL-2_1 4;
#A 0 -nan -nan -nan -nan;
#X obj 579 894 array define -k \$0_zL-2_1 4;
#A 0 -nan -nan -nan -nan;
#X obj 638 927 array define -k \$0_wL-2_1 4;
#A 0 -nan -nan -nan -nan;
#X obj 638 960 array define -k \$0_bL-2_1 1;
#A 0 -nan;
#X obj 579 1001 array define -k \$0_aL-2_2 4;
#A 0 -nan -nan -nan -nan;
#X obj 579 1034 array define -k \$0_zL-2_2 4;
#A 0 -nan -nan -nan -nan;
#X obj 638 1067 array define -k \$0_wL-2_2 4;
#A 0 -nan -nan -nan -nan;
#X obj 638 1100 array define -k \$0_bL-2_2 1;
#A 0 -nan;
#X obj 579 1141 array define -k \$0_aL-2_3 4;
#A 0 -nan -nan -nan -nan;
#X obj 579 1174 array define -k \$0_zL-2_3 4;
#A 0 -nan -nan -nan -nan;
#X obj 638 1206 array define -k \$0_wL-2_3 4;
#A 0 -nan -nan -nan -nan;
#X obj 638 1240 array define -k \$0_bL-2_3 1;
#A 0 -nan;
#X obj 959 721 array define -k \$0_daL-2_0 4;
#A 0 -nan -nan -nan -nan;
#X obj 959 754 array define -k \$0_dzL-2_0 4;
#A 0 -nan -nan -nan -nan;
#X obj 1018 787 array define -k \$0_dwL-2_0 4;
#A 0 -nan -nan -nan -nan;
#X obj 1018 820 array define -k \$0_dbL-2_0 1;
#A 0 -nan;
#X obj 959 861 array define -k \$0_daL-2_1 4;
#A 0 -nan -nan -nan -nan;
#X obj 959 894 array define -k \$0_dzL-2_1 4;
#A 0 -nan -nan -nan -nan;
#X obj 1018 927 array define -k \$0_dwL-2_1 4;
#A 0 -nan -nan -nan -nan;
#X obj 1018 960 array define -k \$0_dbL-2_1 1;
#A 0 -nan;
#X obj 959 1001 array define -k \$0_daL-2_2 4;
#A 0 -nan -nan -nan -nan;
#X obj 959 1034 array define -k \$0_dzL-2_2 4;
#A 0 -nan -nan -nan -nan;
#X obj 1018 1067 array define -k \$0_dwL-2_2 4;
#A 0 -nan -nan -nan -nan;
#X obj 1018 1100 array define -k \$0_dbL-2_2 1;
#A 0 -nan;
#X obj 959 1141 array define -k \$0_daL-2_3 4;
#A 0 -nan -nan -nan -nan;
#X obj 959 1173 array define -k \$0_dzL-2_3 4;
#A 0 -nan -nan -nan -nan;
#X obj 1018 1207 array define -k \$0_dwL-2_3 4;
#A 0 -nan -nan -nan -nan;
#X obj 1018 1240 array define -k \$0_dbL-2_3 1;
#A 0 -nan;
#X msg 39 55 resize 4;
#X msg 433 25 const 0;
#X obj 1357 92 array define -k \$0_aL-3_0 4;
#A 0 0 0 0 0;
#X obj 1737 92 array define -k \$0_daL-3_0 4;
#A 0 -nan -nan -nan -nan;
#X obj 1357 125 array define -k \$0_zL-3_0 4;
#A 0 0 0 0 0;
#X obj 1737 125 array define -k \$0_dzL-3_0 4;
#A 0 0 0 0 0;
#X obj 1416 158 array define -k \$0_wL-3_0 4;
#A 0 0.1956 0.14554 -0.01877 0.00906998;
#X obj 1796 158 array define -k \$0_dwL-3_0 4;
#A 0 -nan -nan -nan -nan;
#X obj 1416 191 array define -k \$0_bL-3_0 1;
#A 0 0.3859;
#X obj 1796 191 array define -k \$0_dbL-3_0 1;
#A 0 -nan;
#X obj 1357 231 array define -k \$0_aL-3_1 4;
#A 0 0 0 0 0;
#X obj 1737 232 array define -k \$0_daL-3_1 4;
#A 0 -nan -nan -nan -nan;
#X obj 1357 265 array define -k \$0_zL-3_1 4;
#A 0 0 0 0 0;
#X obj 1737 265 array define -k \$0_dzL-3_1 4;
#A 0 0 0 0 0;
#X obj 1416 298 array define -k \$0_wL-3_1 4;
#A 0 0.44542 0.14063 0.1023 -0.01474;
#X obj 1796 298 array define -k \$0_dwL-3_1 4;
#A 0 -nan -nan -nan -nan;
#X obj 1416 331 array define -k \$0_bL-3_1 1;
#A 0 -0.22783;
#X obj 1796 331 array define -k \$0_dbL-3_1 1;
#A 0 -nan;
#X obj 1357 372 array define -k \$0_aL-3_2 4;
#A 0 0 0 0 0;
#X obj 1737 372 array define -k \$0_daL-3_2 4;
#A 0 -nan -nan -nan -nan;
#X obj 1357 405 array define -k \$0_zL-3_2 4;
#A 0 0 0 0 0;
#X obj 1737 405 array define -k \$0_dzL-3_2 4;
#A 0 0 0 0 0;
#X obj 1416 438 array define -k \$0_wL-3_2 4;
#A 0 0.40209 -0.44582 0.29305 -0.24386;
#X obj 1797 437 array define -k \$0_dwL-3_2 4;
#A 0 -nan -nan -nan -nan;
#X obj 1416 471 array define -k \$0_bL-3_2 1;
#A 0 -0.39564;
#X obj 1796 471 array define -k \$0_dbL-3_2 1;
#A 0 -nan;
#X obj 1357 512 array define -k \$0_aL-3_3 4;
#A 0 0 0 0 0;
#X obj 1737 512 array define -k \$0_daL-3_3 4;
#A 0 -nan -nan -nan -nan;
#X obj 1357 545 array define -k \$0_zL-3_3 4;
#A 0 0 0 0 0;
#X obj 1737 545 array define -k \$0_dzL-3_3 4;
#A 0 0 0 0 0;
#X obj 1416 578 array define -k \$0_wL-3_3 4;
#A 0 0.05327 -0.07263 -0.39059 0.37165;
#X obj 1796 578 array define -k \$0_dwL-3_3 4;
#A 0 -nan -nan -nan -nan;
#X obj 1416 611 array define -k \$0_bL-3_3 1;
#A 0 -0.21316;
#X obj 1796 611 array define -k \$0_dbL-3_3 1;
#A 0 -nan;
#X obj 1359 721 array define -k \$0_aL-4_0 4;
#A 0 0 0 0 0;
#X obj 1739 721 array define -k \$0_daL-4_0 4;
#A 0 0 0 0 0;
#X obj 1359 754 array define -k \$0_zL-4_0 4;
#A 0 0 0 0 0;
#X obj 1739 754 array define -k \$0_dzL-4_0 4;
#A 0 0 0 0 0;
#X obj 1418 787 array define -k \$0_wL-4_0 4;
#A 0 -0.02796 0.3612 -0.13344 0.36174;
#X obj 1798 787 array define -k \$0_dwL-4_0 4;
#A 0 0 0 0 0;
#X obj 1418 820 array define -k \$0_bL-4_0 1;
#A 0 -0.40478;
#X obj 1798 820 array define -k \$0_dbL-4_0 1;
#A 0 0;
#X obj 1359 860 array define -k \$0_aL-4_1 4;
#A 0 0 0 0 0;
#X obj 1739 861 array define -k \$0_daL-4_1 4;
#A 0 0 0 0 0;
#X obj 1359 894 array define -k \$0_zL-4_1 4;
#A 0 0 0 0 0;
#X obj 1739 894 array define -k \$0_dzL-4_1 4;
#A 0 0 0 0 0;
#X obj 1418 927 array define -k \$0_wL-4_1 4;
#A 0 -0.00130999 -0.25309 -0.04023 0.13709;
#X obj 1798 927 array define -k \$0_dwL-4_1 4;
#A 0 0 0 0 0;
#X obj 1418 960 array define -k \$0_bL-4_1 1;
#A 0 0.24129;
#X obj 1798 960 array define -k \$0_dbL-4_1 1;
#A 0 0;
#X obj 1359 1001 array define -k \$0_aL-4_2 4;
#A 0 0 0 0 0;
#X obj 1739 1001 array define -k \$0_daL-4_2 4;
#A 0 0 0 0 0;
#X obj 1359 1034 array define -k \$0_zL-4_2 4;
#A 0 0 0 0 0;
#X obj 1739 1034 array define -k \$0_dzL-4_2 4;
#A 0 0 0 0 0;
#X obj 1418 1067 array define -k \$0_wL-4_2 4;
#A 0 0.27723 -0.07947 0.27833 -0.21541;
#X obj 1798 1067 array define -k \$0_dwL-4_2 4;
#A 0 0 0 0 0;
#X obj 1418 1100 array define -k \$0_bL-4_2 1;
#A 0 -0.42236;
#X obj 1798 1100 array define -k \$0_dbL-4_2 1;
#A 0 0;
#X obj 1359 1141 array define -k \$0_aL-4_3 4;
#A 0 0 0 0 0;
#X obj 1739 1140 array define -k \$0_daL-4_3 4;
#A 0 0 0 0 0;
#X obj 1359 1174 array define -k \$0_zL-4_3 4;
#A 0 0 0 0 0;
#X obj 1739 1173 array define -k \$0_dzL-4_3 4;
#A 0 0 0 0 0;
#X obj 1418 1206 array define -k \$0_wL-4_3 4;
#A 0 0.30688 -0.2232 -0.46966 -0.37947;
#X obj 1798 1207 array define -k \$0_dwL-4_3 4;
#A 0 0 0 0 0;
#X obj 1418 1240 array define -k \$0_bL-4_3 1;
#A 0 -0.31676;
#X obj 1798 1240 array define -k \$0_dbL-4_3 1;
#A 0 0;
#X text 2121 57 // tmp;
#X obj 2117 92 array define -k \$0_daL-5_0 4;
#A 0 0 0 0 0;
#X obj 2117 132 array define -k \$0_daL-5_1 4;
#A 0 0 0 0 0;
#X obj 2117 172 array define -k \$0_daL-5_2 4;
#A 0 0 0 0 0;
#X obj 2117 212 array define -k \$0_daL-5_3 4;
#A 0 0 0 0 0;
#X msg 162 28 style 1;
#X obj 363 27 inlet;
#X obj 2114 278 array define -k \$0_aL-5_0 4;
#A 0 0 0 0 0;
#X obj 2114 318 array define -k \$0_aL-5_1 4;
#A 0 0 0 0 0;
#X obj 2114 358 array define -k \$0_aL-5_2 4;
#A 0 0 0 0 0;
#X obj 2114 398 array define -k \$0_aL-5_3 4;
#A 0 0 0 0 0;
#X connect 73 0 32 0;
#X connect 73 0 37 0;
#X connect 73 0 36 0;
#X connect 73 0 33 0;
#X connect 73 0 0 0;
#X connect 73 0 53 0;
#X connect 73 0 52 0;
#X connect 73 0 49 0;
#X connect 73 0 48 0;
#X connect 73 0 45 0;
#X connect 73 0 44 0;
#X connect 73 0 41 0;
#X connect 73 0 40 0;
#X connect 73 0 13 0;
#X connect 73 0 12 0;
#X connect 73 0 9 0;
#X connect 73 0 8 0;
#X connect 73 0 5 0;
#X connect 73 0 4 0;
#X connect 73 0 1 0;
#X connect 73 0 16 0;
#X connect 73 0 69 0;
#X connect 73 0 68 0;
#X connect 73 0 65 0;
#X connect 73 0 64 0;
#X connect 73 0 61 0;
#X connect 73 0 60 0;
#X connect 73 0 57 0;
#X connect 73 0 56 0;
#X connect 73 0 29 0;
#X connect 73 0 28 0;
#X connect 73 0 25 0;
#X connect 73 0 24 0;
#X connect 73 0 21 0;
#X connect 73 0 20 0;
#X connect 73 0 17 0;
#X connect 73 0 74 0;
#X connect 73 0 132 0;
#X connect 73 0 130 0;
#X connect 73 0 124 0;
#X connect 73 0 122 0;
#X connect 73 0 116 0;
#X connect 73 0 114 0;
#X connect 73 0 108 0;
#X connect 73 0 106 0;
#X connect 73 0 100 0;
#X connect 73 0 98 0;
#X connect 73 0 92 0;
#X connect 73 0 90 0;
#X connect 73 0 84 0;
#X connect 73 0 82 0;
#X connect 73 0 76 0;
#X connect 73 0 75 0;
#X connect 73 0 133 0;
#X connect 73 0 131 0;
#X connect 73 0 125 0;
#X connect 73 0 123 0;
#X connect 73 0 117 0;
#X connect 73 0 115 0;
#X connect 73 0 109 0;
#X connect 73 0 107 0;
#X connect 73 0 101 0;
#X connect 73 0 99 0;
#X connect 73 0 93 0;
#X connect 73 0 91 0;
#X connect 73 0 85 0;
#X connect 73 0 83 0;
#X connect 73 0 77 0;
#X connect 73 0 139 0;
#X connect 73 0 142 0;
#X connect 73 0 141 0;
#X connect 73 0 140 0;
#X connect 144 0 73 0;
#X restore 24 209 pd arrays;
#N canvas 1750 328 427 257 array_args_safe 0;
#X obj 81 24 inlet message;
#N canvas 1448 515 223 141 ns_symbol 0;
#X obj 99 46 r \$0_ns;
#X obj 29 15 inlet raw_message;
#X obj 29 73 outlet ns_message;
#X obj 29 45 d0_safe;
#X connect 0 0 3 1;
#X connect 1 0 3 0;
#X connect 3 0 2 0;
#X restore 81 80 pd ns_symbol;
#X obj 81 164 outlet values;
#X obj 222 163 outlet name;
#X obj 81 52 list split 1, f 34;
#X obj 81 136 list store;
#X obj 81 108 t b s, f 18;
#X connect 0 0 4 0;
#X connect 1 0 6 0;
#X connect 4 0 1 0;
#X connect 4 1 5 1;
#X connect 5 0 2 0;
#X connect 6 0 5 0;
#X connect 6 1 3 0;
#X restore 52 964 pd array_args_safe;
#X msg 52 872 y_hat -0.5 -0.25 0.05 0.25;
#X obj 52 1012 array set;
#X msg 72 902 Y 0.75 1 0 0.1;
#X msg 49 1071 bang;
#X obj 49 1099 t b b;
#N canvas 1472 731 228 137 ns_symbol_safe 0;
#X obj 99 46 r \$0_ns;
#X obj 29 15 inlet raw_message;
#X obj 29 73 outlet ns_message;
#X obj 29 45 d0_safe;
#X connect 0 0 3 1;
#X connect 1 0 3 0;
#X connect 3 0 2 0;
#X restore 118 1200 pd ns_symbol_safe;
#X obj 49 1278 array get;
#X obj 49 1306 print;
#X msg 118 1161 dzL-0_0;
#X obj 78 54 f \$0;
#X obj 78 82 s \$0_ns;
#X msg 78 26 bang;
#X obj 26 28 bng 40 250 50 0 \$0_init empty init 0 -12 0 16 #fcfcfc #000000 #000000;
#X msg 24 176 bang;
#N canvas 1133 528 675 664 iterator 0;
#X obj 44 31 inlet toggle;
#X obj 44 157 f;
#X obj 44 215 t f f;
#X obj 291 31 inlet batch_size;
#X obj 98 215 + 1;
#X obj 44 263 mod;
#X obj 44 291 t f f;
#X obj 81 324 sel;
#X msg 287 290 0;
#X obj 81 352 t b b, f 16;
#X obj 81 380 s \$0_m_0;
#X obj 44 87 t b b;
#X obj 81 115 s \$0_m_b;
#X obj 291 59 t f f;
#X obj 328 105 - 1;
#X obj 44 59 metro 25, f 17;
#X obj 177 31 inlet rate;
#X connect 0 0 15 0;
#X connect 1 0 2 0;
#X connect 2 0 5 0;
#X connect 2 1 4 0;
#X connect 3 0 13 0;
#X connect 4 0 1 1;
#X connect 5 0 6 0;
#X connect 6 1 7 0;
#X connect 7 0 9 0;
#X connect 8 0 1 1;
#X connect 9 0 10 0;
#X connect 9 1 8 0;
#X connect 11 0 1 0;
#X connect 11 1 12 0;
#X connect 13 0 5 1;
#X connect 13 1 14 0;
#X connect 14 0 7 1;
#X connect 15 0 11 0;
#X connect 16 0 15 1;
#X restore 175 51 pd iterator;
#X f 23;
#X obj 176 22 tgl 23 0 empty empty empty 0 -12 0 16 #fcfcfc #000000 #000000 0 1;
#X obj 265 25 nbx 5 21 -1e+37 1e+37 0 1 empty empty ms 0 -12 0 16 #fcfcfc #000000 #000000 100 256;
#X obj 356 25 nbx 5 21 -1e+37 1e+37 0 1 \$0_batch_size empty batch\ size 0 -12 0 16 #fcfcfc #000000 #000000 4 256;
#N canvas 20 70 1712 1332 initialize_params 0;
#X obj 668 304 nn.initialize_params wL-2_1 1;
#X obj 668 334 nn.initialize_params bL-2_1 1;
#X obj 668 374 nn.initialize_params wL-2_2 1;
#X obj 668 404 nn.initialize_params bL-2_2 1;
#X obj 668 234 nn.initialize_params wL-2_0 1;
#X obj 668 264 nn.initialize_params bL-2_0 1;
#X obj 84 24 inlet bang;
#X obj 1056 7 r \$0_ns;
#X obj 984 232 nn.initialize_params wL-3_0 1;
#X obj 984 262 nn.initialize_params bL-3_0 1;
#X obj 984 302 nn.initialize_params wL-3_1 1;
#X obj 984 332 nn.initialize_params bL-3_1 1;
#X obj 984 372 nn.initialize_params wL-3_2 1;
#X obj 984 402 nn.initialize_params bL-3_2 1;
#X obj 388 234 nn.initialize_params wL-1_0 1;
#X obj 388 264 nn.initialize_params bL-1_0 1;
#X obj 388 304 nn.initialize_params wL-1_1 1;
#X obj 388 334 nn.initialize_params bL-1_1 1;
#X obj 388 374 nn.initialize_params wL-1_2 1;
#X obj 388 404 nn.initialize_params bL-1_2 1;
#X obj 388 444 nn.initialize_params wL-1_3 1;
#X obj 388 474 nn.initialize_params bL-1_3 1;
#X obj 668 444 nn.initialize_params wL-2_3 1;
#X obj 668 474 nn.initialize_params bL-2_3 1;
#X obj 984 442 nn.initialize_params wL-3_3 1;
#X obj 984 472 nn.initialize_params bL-3_3 1;
#X obj 1294 232 nn.initialize_params wL-4_0 1;
#X obj 1294 262 nn.initialize_params bL-4_0 1;
#X obj 1294 302 nn.initialize_params wL-4_1 1;
#X obj 1294 332 nn.initialize_params bL-4_1 1;
#X obj 1294 372 nn.initialize_params wL-4_2 1;
#X obj 1294 402 nn.initialize_params bL-4_2 1;
#X obj 1294 442 nn.initialize_params wL-4_3 1;
#X obj 1294 472 nn.initialize_params bL-4_3 1;
#X obj 72 321 nn.initialize_params wL-0_0 1;
#X obj 82 351 nn.initialize_params bL-0_0 1;
#X connect 6 0 33 0;
#X connect 6 0 32 0;
#X connect 6 0 31 0;
#X connect 6 0 30 0;
#X connect 6 0 29 0;
#X connect 6 0 28 0;
#X connect 6 0 27 0;
#X connect 6 0 26 0;
#X connect 6 0 25 0;
#X connect 6 0 24 0;
#X connect 6 0 23 0;
#X connect 6 0 22 0;
#X connect 6 0 21 0;
#X connect 6 0 20 0;
#X connect 6 0 19 0;
#X connect 6 0 18 0;
#X connect 6 0 17 0;
#X connect 6 0 16 0;
#X connect 6 0 15 0;
#X connect 6 0 14 0;
#X connect 6 0 13 0;
#X connect 6 0 12 0;
#X connect 6 0 11 0;
#X connect 6 0 10 0;
#X connect 6 0 9 0;
#X connect 6 0 8 0;
#X connect 6 0 5 0;
#X connect 6 0 4 0;
#X connect 6 0 3 0;
#X connect 6 0 2 0;
#X connect 6 0 1 0;
#X connect 6 0 0 0;
#X connect 6 0 34 0;
#X connect 6 0 35 0;
#X connect 7 0 33 1;
#X connect 7 0 32 1;
#X connect 7 0 31 1;
#X connect 7 0 30 1;
#X connect 7 0 29 1;
#X connect 7 0 28 1;
#X connect 7 0 27 1;
#X connect 7 0 26 1;
#X connect 7 0 25 1;
#X connect 7 0 24 1;
#X connect 7 0 23 1;
#X connect 7 0 22 1;
#X connect 7 0 21 1;
#X connect 7 0 20 1;
#X connect 7 0 19 1;
#X connect 7 0 18 1;
#X connect 7 0 17 1;
#X connect 7 0 16 1;
#X connect 7 0 15 1;
#X connect 7 0 14 1;
#X connect 7 0 13 1;
#X connect 7 0 12 1;
#X connect 7 0 11 1;
#X connect 7 0 10 1;
#X connect 7 0 9 1;
#X connect 7 0 8 1;
#X connect 7 0 5 1;
#X connect 7 0 4 1;
#X connect 7 0 3 1;
#X connect 7 0 2 1;
#X connect 7 0 1 1;
#X connect 7 0 0 1;
#X connect 7 0 34 1;
#X connect 7 0 35 1;
#X restore 112 213 pd initialize_params;
#X msg 112 176 bang;
#X obj 311 106 nbx 5 21 0 1 0 1 empty \$0_init learning\ rate 0 -12 0 16 #fcfcfc #000000 #000000 0.1 256;
#X obj 311 132 s \$0_alpha;
#N canvas 768 159 2042 1206 synth 0;
#X obj 388 327 nbx 5 21 -1e+37 1e+37 0 1 empty empty empty 0 -12 0 16 #fcfcfc #000000 #000000 307.692 256;
#X obj 266 669 *~;
#X obj 604 75 lop~ 5;
#X obj 660 1042 dac~;
#X obj 546 617 rev1~, f 11;
#X obj 588 584 nbx 5 21 0 160 0 1 empty empty empty 0 -12 0 16 #fcfcfc #000000 #000000 60 256;
#X obj 655 615 bng 23 250 50 0 empty empty empty 0 -12 0 16 #fcfcfc #000000 #000000;
#X obj 663 936 +~;
#X obj 696 885 *~;
#X obj 669 699 nbx 5 21 0 1 0 1 empty empty empty 0 -12 0 16 #fcfcfc #000000 #000000 0.3 256;
#X obj 506 855 *~;
#X obj 669 761 expr 1 - $f1;
#X obj 669 725 t f f, f 17;
#X obj 77 38 f;
#X obj 77 66 t f f;
#X obj 135 66 + 1;
#X obj 77 104 mod 4;
#X obj 77 132 sel 0;
#X obj 77 10 r \$0_m_b;
#X msg 290 320 1;
#X floatatom 127 105 5 0 0 0 - - - 0;
#X msg 131 317 1;
#N canvas 8 122 1762 1184 triangle 0;
#X obj 231 51 inlet freq;
#X obj 231 104 t f f f f f f f, f 144;
#X obj 231 237 * 1;
#X obj 231 265 osc~;
#X obj 231 293 *~, f 6;
#X obj 252 149 nbx 4 21 0 20 0 1 empty \$0_h_bang harmonic 0 -12 0 16 #fcfcfc #000000 #000000 1 256;
#X obj 252 175 t f f;
#X obj 289 203 expr if ($f1 > 0 \, 1 / ($f1 * $f1) \, 0);
#X obj 422 337 * 1;
#X obj 422 365 osc~;
#X obj 422 393 *~, f 6;
#X obj 443 249 nbx 4 21 0 20 0 1 empty \$0_h_bang harmonic 0 -12 0 16 #fcfcfc #000000 #000000 3 256;
#X obj 443 275 t f f;
#X obj 480 303 expr if ($f1 > 0 \, 1 / ($f1 * $f1) \, 0);
#X obj 614 437 * 1;
#X obj 614 465 osc~;
#X obj 614 493 *~, f 6;
#X obj 635 349 nbx 4 21 0 20 0 1 empty \$0_h_bang harmonic 0 -12 0 16 #fcfcfc #000000 #000000 5 256;
#X obj 635 375 t f f;
#X obj 672 403 expr if ($f1 > 0 \, 1 / ($f1 * $f1) \, 0);
#X obj 805 537 * 1;
#X obj 805 565 osc~;
#X obj 805 593 *~, f 6;
#X obj 826 449 nbx 4 21 0 20 0 1 empty \$0_h_bang harmonic 0 -12 0 16 #fcfcfc #000000 #000000 7 256;
#X obj 826 475 t f f;
#X obj 863 503 expr if ($f1 > 0 \, 1 / ($f1 * $f1) \, 0);
#X obj 997 637 * 1;
#X obj 997 665 osc~;
#X obj 997 693 *~, f 6;
#X obj 1018 549 nbx 4 21 0 20 0 1 empty \$0_h_bang harmonic 0 -12 0 16 #fcfcfc #000000 #000000 9 256;
#X obj 1018 575 t f f;
#X obj 1055 603 expr if ($f1 > 0 \, 1 / ($f1 * $f1) \, 0);
#X obj 1188 737 * 1;
#X obj 1188 765 osc~;
#X obj 1188 793 *~, f 6;
#X obj 1209 649 nbx 4 21 0 20 0 1 empty \$0_h_bang harmonic 0 -12 0 16 #fcfcfc #000000 #000000 11 256;
#X obj 1209 675 t f f;
#X obj 1246 703 expr if ($f1 > 0 \, 1 / ($f1 * $f1) \, 0);
#X obj 1380 837 * 1;
#X obj 1380 865 osc~;
#X obj 1380 893 *~, f 6;
#X obj 1401 749 nbx 4 21 0 20 0 1 empty \$0_h_bang harmonic 0 -12 0 16 #fcfcfc #000000 #000000 13 256;
#X obj 1401 775 t f f;
#X obj 1438 803 expr if ($f1 > 0 \, 1 / ($f1 * $f1) \, 0);
#X obj 34 21 r \$0_init;
#X obj 34 49 s \$0_h_bang;
#X obj 615 968 *~ 1;
#X obj 616 1072 outlet~;
#X connect 0 0 1 0;
#X connect 1 0 2 0;
#X connect 1 1 8 0;
#X connect 1 2 14 0;
#X connect 1 3 20 0;
#X connect 1 4 26 0;
#X connect 1 5 32 0;
#X connect 1 6 38 0;
#X connect 2 0 3 0;
#X connect 3 0 4 0;
#X connect 4 0 46 0;
#X connect 5 0 6 0;
#X connect 6 0 2 1;
#X connect 6 1 7 0;
#X connect 7 0 4 1;
#X connect 8 0 9 0;
#X connect 9 0 10 0;
#X connect 10 0 46 0;
#X connect 11 0 12 0;
#X connect 12 0 8 1;
#X connect 12 1 13 0;
#X connect 13 0 10 1;
#X connect 14 0 15 0;
#X connect 15 0 16 0;
#X connect 16 0 46 0;
#X connect 17 0 18 0;
#X connect 18 0 14 1;
#X connect 18 1 19 0;
#X connect 19 0 16 1;
#X connect 20 0 21 0;
#X connect 21 0 22 0;
#X connect 22 0 46 0;
#X connect 23 0 24 0;
#X connect 24 0 20 1;
#X connect 24 1 25 0;
#X connect 25 0 22 1;
#X connect 26 0 27 0;
#X connect 27 0 28 0;
#X connect 28 0 46 0;
#X connect 29 0 30 0;
#X connect 30 0 26 1;
#X connect 30 1 31 0;
#X connect 31 0 28 1;
#X connect 32 0 33 0;
#X connect 33 0 34 0;
#X connect 34 0 46 0;
#X connect 35 0 36 0;
#X connect 36 0 32 1;
#X connect 36 1 37 0;
#X connect 37 0 34 1;
#X connect 38 0 39 0;
#X connect 39 0 40 0;
#X connect 40 0 46 0;
#X connect 41 0 42 0;
#X connect 42 0 38 1;
#X connect 42 1 43 0;
#X connect 43 0 40 1;
#X connect 44 0 45 0;
#X connect 46 0 47 0;
#X restore 220 595 pd triangle;
#X obj 77 160 f;
#X obj 77 188 t f f;
#X obj 135 189 + 1;
#X obj 77 216 mod 4;
#N canvas 1041 707 475 293 normalize 0;
#X obj 33 15 inlet denormalized;
#X obj 280 45 inlet scale;
#X obj 33 149 * 1;
#X obj 33 242 outlet;
#X obj 33 65 + 1;
#X obj 280 73 t f f;
#X obj 32 105 * 0.5;
#X obj 33 182 + 110;
#X floatatom 98 183 5 0 0 0 - - - 0;
#X connect 0 0 4 0;
#X connect 1 0 5 0;
#X connect 2 0 7 0;
#X connect 4 0 6 0;
#X connect 5 0 2 1;
#X connect 6 0 2 0;
#X connect 7 0 3 0;
#X connect 8 0 7 1;
#X restore 220 455 pd normalize;
#X obj 388 353 t f f, f 7;
#N canvas 12 158 424 270 quantize 0;
#X obj 84 63 ftom;
#X obj 84 94 int;
#X obj 84 150 mtof;
#X obj 84 121 expr if($f1 % 2 == 0 \, $f1 \, $f1 - 1);
#X obj 84 27 inlet;
#X obj 84 178 outlet;
#X obj 186 179 outlet midi;
#X connect 0 0 1 0;
#X connect 1 0 3 0;
#X connect 2 0 5 0;
#X connect 3 0 2 0;
#X connect 3 0 6 0;
#X connect 4 0 0 0;
#X restore 257 519 pd quantize;
#X obj 77 483 t f f;
#X obj 220 483 t f f;
#N canvas 8 122 424 270 quantize 0;
#X obj 84 63 ftom;
#X obj 84 94 int;
#X obj 84 150 mtof;
#X obj 84 121 expr if($f1 % 2 == 0 \, $f1 \, $f1 - 1);
#X obj 84 27 inlet;
#X obj 84 178 outlet;
#X connect 0 0 1 0;
#X connect 1 0 3 0;
#X connect 2 0 5 0;
#X connect 3 0 2 0;
#X connect 4 0 0 0;
#X restore 114 519 pd quantize;
#N canvas 8 122 1762 1184 triangle 0;
#X obj 231 51 inlet freq;
#X obj 231 104 t f f f f f f f, f 144;
#X obj 231 237 * 1;
#X obj 231 265 osc~;
#X obj 231 293 *~, f 6;
#X obj 252 149 nbx 4 21 0 20 0 1 empty \$0_h_bang harmonic 0 -12 0 16 #fcfcfc #000000 #000000 1 256;
#X obj 252 175 t f f;
#X obj 289 203 expr if ($f1 > 0 \, 1 / ($f1 * $f1) \, 0);
#X obj 422 337 * 1;
#X obj 422 365 osc~;
#X obj 422 393 *~, f 6;
#X obj 443 249 nbx 4 21 0 20 0 1 empty \$0_h_bang harmonic 0 -12 0 16 #fcfcfc #000000 #000000 3 256;
#X obj 443 275 t f f;
#X obj 480 303 expr if ($f1 > 0 \, 1 / ($f1 * $f1) \, 0);
#X obj 614 437 * 1;
#X obj 614 465 osc~;
#X obj 614 493 *~, f 6;
#X obj 635 349 nbx 4 21 0 20 0 1 empty \$0_h_bang harmonic 0 -12 0 16 #fcfcfc #000000 #000000 5 256;
#X obj 635 375 t f f;
#X obj 672 403 expr if ($f1 > 0 \, 1 / ($f1 * $f1) \, 0);
#X obj 805 537 * 1;
#X obj 805 565 osc~;
#X obj 805 593 *~, f 6;
#X obj 826 449 nbx 4 21 0 20 0 1 empty \$0_h_bang harmonic 0 -12 0 16 #fcfcfc #000000 #000000 7 256;
#X obj 826 475 t f f;
#X obj 863 503 expr if ($f1 > 0 \, 1 / ($f1 * $f1) \, 0);
#X obj 997 637 * 1;
#X obj 997 665 osc~;
#X obj 997 693 *~, f 6;
#X obj 1018 549 nbx 4 21 0 20 0 1 empty \$0_h_bang harmonic 0 -12 0 16 #fcfcfc #000000 #000000 9 256;
#X obj 1018 575 t f f;
#X obj 1055 603 expr if ($f1 > 0 \, 1 / ($f1 * $f1) \, 0);
#X obj 1188 737 * 1;
#X obj 1188 765 osc~;
#X obj 1188 793 *~, f 6;
#X obj 1209 649 nbx 4 21 0 20 0 1 empty \$0_h_bang harmonic 0 -12 0 16 #fcfcfc #000000 #000000 11 256;
#X obj 1209 675 t f f;
#X obj 1246 703 expr if ($f1 > 0 \, 1 / ($f1 * $f1) \, 0);
#X obj 1380 837 * 1;
#X obj 1380 865 osc~;
#X obj 1380 893 *~, f 6;
#X obj 1401 749 nbx 4 21 0 20 0 1 empty \$0_h_bang harmonic 0 -12 0 16 #fcfcfc #000000 #000000 13 256;
#X obj 1401 775 t f f;
#X obj 1438 803 expr if ($f1 > 0 \, 1 / ($f1 * $f1) \, 0);
#X obj 34 21 r \$0_init;
#X obj 34 49 s \$0_h_bang;
#X obj 615 968 *~ 1;
#X obj 616 1072 outlet~;
#X connect 0 0 1 0;
#X connect 1 0 2 0;
#X connect 1 1 8 0;
#X connect 1 2 14 0;
#X connect 1 3 20 0;
#X connect 1 4 26 0;
#X connect 1 5 32 0;
#X connect 1 6 38 0;
#X connect 2 0 3 0;
#X connect 3 0 4 0;
#X connect 4 0 46 0;
#X connect 5 0 6 0;
#X connect 6 0 2 1;
#X connect 6 1 7 0;
#X connect 7 0 4 1;
#X connect 8 0 9 0;
#X connect 9 0 10 0;
#X connect 10 0 46 0;
#X connect 11 0 12 0;
#X connect 12 0 8 1;
#X connect 12 1 13 0;
#X connect 13 0 10 1;
#X connect 14 0 15 0;
#X connect 15 0 16 0;
#X connect 16 0 46 0;
#X connect 17 0 18 0;
#X connect 18 0 14 1;
#X connect 18 1 19 0;
#X connect 19 0 16 1;
#X connect 20 0 21 0;
#X connect 21 0 22 0;
#X connect 22 0 46 0;
#X connect 23 0 24 0;
#X connect 24 0 20 1;
#X connect 24 1 25 0;
#X connect 25 0 22 1;
#X connect 26 0 27 0;
#X connect 27 0 28 0;
#X connect 28 0 46 0;
#X connect 29 0 30 0;
#X connect 30 0 26 1;
#X connect 30 1 31 0;
#X connect 31 0 28 1;
#X connect 32 0 33 0;
#X connect 33 0 34 0;
#X connect 34 0 46 0;
#X connect 35 0 36 0;
#X connect 36 0 32 1;
#X connect 36 1 37 0;
#X connect 37 0 34 1;
#X connect 38 0 39 0;
#X connect 39 0 40 0;
#X connect 40 0 46 0;
#X connect 41 0 42 0;
#X connect 42 0 38 1;
#X connect 42 1 43 0;
#X connect 43 0 40 1;
#X connect 44 0 45 0;
#X connect 46 0 47 0;
#X restore 77 595 pd triangle;
#X obj 686 660 r \$0_init;
#X obj 604 9 inlet amp_Y;
#X obj 744 75 lop~ 5;
#X obj 744 9 inlet amp_y_hat;
#X obj 116 669 *~;
#X obj 192 728 +~;
#X obj 388 15 inlet norm_range;
#X floatatom 140 218 5 0 0 0 - - - 0;
#X obj 243 160 r \$0_m_i;
#X obj 491 353 array get \$0_aL-2_1;
#X obj 77 264 t f f f;
#X msg 565 320 1;
#X obj 242 233 r \$0_init;
#X obj 664 983 bob~;
#X obj 491 381 t f f, f 45;
#X obj 847 488 lop~ 10;
#X obj 734 981 nbx 5 21 0 4 0 1 empty empty empty 0 -12 0 16 #fcfcfc #000000 #000000 0.850003 256;
#X obj 894 554 nbx 5 21 -1e+37 1e+37 0 1 empty empty empty 0 -12 0 16 #fcfcfc #000000 #000000 632 256;
#X obj 894 524 nbx 5 21 -1e+37 1e+37 0 1 empty empty empty 0 -12 0 16 #fcfcfc #000000 #000000 530.39 256;
#X obj 848 525 *~;
#X obj 848 553 +~;
#X obj 848 414 + 1;
#X obj 847 454 * 0.5;
#X msg 1145 288 1;
#X obj 1071 349 t f f, f 45;
#X obj 242 261 t b b b b b, f 55;
#N canvas 12 158 1762 1184 triangle 0;
#X obj 231 51 inlet freq;
#X obj 231 104 t f f f f f f f, f 144;
#X obj 231 237 * 1;
#X obj 231 265 osc~;
#X obj 231 293 *~, f 6;
#X obj 252 149 nbx 4 21 0 20 0 1 empty \$0_h_bang harmonic 0 -12 0 16 #fcfcfc #000000 #000000 1 256;
#X obj 252 175 t f f;
#X obj 289 203 expr if ($f1 > 0 \, 1 / ($f1 * $f1) \, 0);
#X obj 422 337 * 1;
#X obj 422 365 osc~;
#X obj 422 393 *~, f 6;
#X obj 443 249 nbx 4 21 0 20 0 1 empty \$0_h_bang harmonic 0 -12 0 16 #fcfcfc #000000 #000000 3 256;
#X obj 443 275 t f f;
#X obj 480 303 expr if ($f1 > 0 \, 1 / ($f1 * $f1) \, 0);
#X obj 614 437 * 1;
#X obj 614 465 osc~;
#X obj 614 493 *~, f 6;
#X obj 635 349 nbx 4 21 0 20 0 1 empty \$0_h_bang harmonic 0 -12 0 16 #fcfcfc #000000 #000000 5 256;
#X obj 635 375 t f f;
#X obj 672 403 expr if ($f1 > 0 \, 1 / ($f1 * $f1) \, 0);
#X obj 805 537 * 1;
#X obj 805 565 osc~;
#X obj 805 593 *~, f 6;
#X obj 826 449 nbx 4 21 0 20 0 1 empty \$0_h_bang harmonic 0 -12 0 16 #fcfcfc #000000 #000000 7 256;
#X obj 826 475 t f f;
#X obj 863 503 expr if ($f1 > 0 \, 1 / ($f1 * $f1) \, 0);
#X obj 997 637 * 1;
#X obj 997 665 osc~;
#X obj 997 693 *~, f 6;
#X obj 1018 549 nbx 4 21 0 20 0 1 empty \$0_h_bang harmonic 0 -12 0 16 #fcfcfc #000000 #000000 9 256;
#X obj 1018 575 t f f;
#X obj 1055 603 expr if ($f1 > 0 \, 1 / ($f1 * $f1) \, 0);
#X obj 1188 737 * 1;
#X obj 1188 765 osc~;
#X obj 1188 793 *~, f 6;
#X obj 1209 649 nbx 4 21 0 20 0 1 empty \$0_h_bang harmonic 0 -12 0 16 #fcfcfc #000000 #000000 11 256;
#X obj 1209 675 t f f;
#X obj 1246 703 expr if ($f1 > 0 \, 1 / ($f1 * $f1) \, 0);
#X obj 1380 837 * 1;
#X obj 1380 865 osc~;
#X obj 1380 893 *~, f 6;
#X obj 1401 749 nbx 4 21 0 20 0 1 empty \$0_h_bang harmonic 0 -12 0 16 #fcfcfc #000000 #000000 13 256;
#X obj 1401 775 t f f;
#X obj 1438 803 expr if ($f1 > 0 \, 1 / ($f1 * $f1) \, 0);
#X obj 34 21 r \$0_init;
#X obj 34 49 s \$0_h_bang;
#X obj 615 968 *~ 1;
#X obj 616 1072 outlet~;
#X connect 0 0 1 0;
#X connect 1 0 2 0;
#X connect 1 1 8 0;
#X connect 1 2 14 0;
#X connect 1 3 20 0;
#X connect 1 4 26 0;
#X connect 1 5 32 0;
#X connect 1 6 38 0;
#X connect 2 0 3 0;
#X connect 3 0 4 0;
#X connect 4 0 46 0;
#X connect 5 0 6 0;
#X connect 6 0 2 1;
#X connect 6 1 7 0;
#X connect 7 0 4 1;
#X connect 8 0 9 0;
#X connect 9 0 10 0;
#X connect 10 0 46 0;
#X connect 11 0 12 0;
#X connect 12 0 8 1;
#X connect 12 1 13 0;
#X connect 13 0 10 1;
#X connect 14 0 15 0;
#X connect 15 0 16 0;
#X connect 16 0 46 0;
#X connect 17 0 18 0;
#X connect 18 0 14 1;
#X connect 18 1 19 0;
#X connect 19 0 16 1;
#X connect 20 0 21 0;
#X connect 21 0 22 0;
#X connect 22 0 46 0;
#X connect 23 0 24 0;
#X connect 24 0 20 1;
#X connect 24 1 25 0;
#X connect 25 0 22 1;
#X connect 26 0 27 0;
#X connect 27 0 28 0;
#X connect 28 0 46 0;
#X connect 29 0 30 0;
#X connect 30 0 26 1;
#X connect 30 1 31 0;
#X connect 31 0 28 1;
#X connect 32 0 33 0;
#X connect 33 0 34 0;
#X connect 34 0 46 0;
#X connect 35 0 36 0;
#X connect 36 0 32 1;
#X connect 36 1 37 0;
#X connect 37 0 34 1;
#X connect 38 0 39 0;
#X connect 39 0 40 0;
#X connect 40 0 46 0;
#X connect 41 0 42 0;
#X connect 42 0 38 1;
#X connect 42 1 43 0;
#X connect 43 0 40 1;
#X connect 44 0 45 0;
#X connect 46 0 47 0;
#X restore 1428 706 pd triangle;
#X obj 1467 780 *~;
#X floatatom 1514 777 5 0 0 0 - - - 0;
#N canvas 1045 743 475 293 normalize 0;
#X obj 33 15 inlet denormalized;
#X obj 280 45 inlet scale;
#X obj 33 149 * 1;
#X obj 33 242 outlet;
#X obj 33 65 + 1;
#X obj 280 73 t f f;
#X obj 32 105 * 0.5;
#X obj 33 182 + 110;
#X connect 0 0 4 0;
#X connect 1 0 5 0;
#X connect 2 0 7 0;
#X connect 4 0 6 0;
#X connect 5 0 2 1;
#X connect 6 0 2 0;
#X connect 7 0 3 0;
#X restore 77 454 pd normalize;
#X obj 337 990 noteout;
#X obj 337 942 makenote;
#X obj 340 877 t f b b;
#X msg 353 908 25;
#X msg 408 904 25;
#X obj 1428 399 * 0.5;
#X obj 1428 427 + 0.5;
#X obj 1426 462 *;
#X obj 1488 464 nbx 5 21 -1e+37 1e+37 0 0 empty empty empty 0 -12 0 16 #fcfcfc #000000 #000000 0 256;
#X obj 1423 511 +;
#X obj 1482 516 nbx 5 21 -1e+37 1e+37 0 0 empty empty empty 0 -12 0 16 #fcfcfc #000000 #000000 0 256;
#X obj 1422 596 ctlout;
#X floatatom 1504 594 5 0 0 0 - - - 0;
#X obj 1071 321 array get \$0_aL-2_1;
#X obj 77 350 array get \$0_Y_0;
#X obj 220 353 array get \$0_aL-0_0;
#X connect 0 0 28 0;
#X connect 1 0 39 0;
#X connect 2 0 38 1;
#X connect 4 0 8 0;
#X connect 5 0 4 1;
#X connect 6 0 4 2;
#X connect 7 0 47 0;
#X connect 8 0 7 1;
#X connect 9 0 12 0;
#X connect 10 0 7 0;
#X connect 11 0 10 1;
#X connect 12 0 11 0;
#X connect 12 1 8 1;
#X connect 13 0 14 0;
#X connect 14 0 16 0;
#X connect 14 1 15 0;
#X connect 15 0 13 1;
#X connect 16 0 17 0;
#X connect 17 0 23 0;
#X connect 18 0 13 0;
#X connect 19 0 79 1;
#X connect 20 0 16 1;
#X connect 21 0 78 1;
#X connect 22 0 1 0;
#X connect 23 0 24 0;
#X connect 24 0 26 0;
#X connect 24 1 25 0;
#X connect 25 0 23 1;
#X connect 26 0 44 0;
#X connect 27 0 31 0;
#X connect 28 0 63 1;
#X connect 28 1 27 1;
#X connect 29 1 66 0;
#X connect 30 1 32 0;
#X connect 31 0 22 0;
#X connect 31 1 29 0;
#X connect 32 0 33 0;
#X connect 33 0 38 0;
#X connect 34 0 9 0;
#X connect 35 0 2 0;
#X connect 36 0 1 1;
#X connect 37 0 36 0;
#X connect 38 0 39 0;
#X connect 39 0 4 0;
#X connect 39 0 10 0;
#X connect 40 0 0 0;
#X connect 41 0 26 1;
#X connect 43 0 48 0;
#X connect 44 0 78 0;
#X connect 44 1 79 0;
#X connect 44 2 43 0;
#X connect 44 2 77 0;
#X connect 45 0 43 1;
#X connect 46 0 59 0;
#X connect 47 0 3 0;
#X connect 47 0 3 1;
#X connect 48 1 55 0;
#X connect 49 0 53 0;
#X connect 50 0 47 2;
#X connect 51 0 54 1;
#X connect 52 0 53 1;
#X connect 53 0 54 0;
#X connect 54 0 47 1;
#X connect 55 0 56 0;
#X connect 56 0 49 0;
#X connect 57 0 77 1;
#X connect 58 1 69 0;
#X connect 59 0 21 0;
#X connect 59 1 19 0;
#X connect 59 2 0 0;
#X connect 59 3 45 0;
#X connect 59 4 57 0;
#X connect 60 0 61 0;
#X connect 62 0 61 1;
#X connect 63 0 30 0;
#X connect 65 0 64 0;
#X connect 65 1 64 1;
#X connect 66 0 65 0;
#X connect 66 1 67 0;
#X connect 66 2 68 0;
#X connect 68 0 65 2;
#X connect 69 0 70 0;
#X connect 70 0 71 0;
#X connect 71 0 73 0;
#X connect 72 0 71 1;
#X connect 73 0 75 0;
#X connect 73 0 65 1;
#X connect 74 0 73 1;
#X connect 76 0 75 2;
#X connect 77 0 58 0;
#X connect 78 0 63 0;
#X connect 79 0 27 0;
#X restore 34 518 pd synth;
#X f 27;
#X obj 140 313 vsl 23 196 0 1 0 0 empty empty amp\ Y 0 -9 0 16 #fcfcfc #000000 #000000 0 1;
#N canvas 905 186 1668 827 generate_data 0;
#X obj 56 682 array set;
#X obj 1154 24 expr if($f1 > 7 \, -0.5 \, 0.5);
#X obj 133 23 inlet;
#X obj 253 549 nbx 5 21 -1e+37 1e+37 0 1 empty empty empty 0 -12 0 16 #fcfcfc #000000 #000000 42 256;
#X obj 1151 111 expr if($f1 < $f2 \, 0.3 \, if($f1 < 11 \, 1 \, 0.5));
#X obj 1148 69 expr if($f1 < 5 \, -0.5 \, if($f1 < 11 \, 0.1 \, -0.8));
#X obj 56 88 r \$0_m_i;
#N canvas 1444 479 291 176 ns_symbol 0;
#X obj 71 46 r \$0_ns;
#X obj 29 45 d_0;
#X obj 29 15 inlet raw_message;
#X obj 29 83 outlet ns_message;
#X connect 0 0 1 1;
#X connect 1 0 3 0;
#X connect 2 0 1 0;
#X restore 125 648 pd ns_symbol;
#X msg 125 613 X;
#X obj 397 694 array set;
#N canvas 1444 479 291 176 ns_symbol 0;
#X obj 71 46 r \$0_ns;
#X obj 29 45 d_0;
#X obj 29 15 inlet raw_message;
#X obj 29 83 outlet ns_message;
#X connect 0 0 1 1;
#X connect 1 0 3 0;
#X connect 2 0 1 0;
#X restore 466 660 pd ns_symbol;
#X obj 583 506 nbx 5 21 -1e+37 1e+37 0 1 empty empty empty 0 -12 0 16 #fcfcfc #000000 #000000 37.3846 256;
#X obj 56 352 spigot, f 10;
#X obj 253 23 inlet;
#X obj 584 23 inlet;
#X obj 56 575 expr sin(($f1 + 1) * $f2);
#X obj 386 536 expr sin(($f1 + 1) * $f2);
#X obj 175 612 r \$0_init;
#X obj 507 625 r \$0_init;
#X obj 253 57 t f f f;
#X obj 56 424 t f f f f f f f f, f 117;
#X obj 373 58 f;
#X obj 373 86 t f f;
#X obj 430 87 + 1;
#X msg 433 55 0;
#X obj 371 18 r \$0_m_b;
#X floatatom 433 121 5 0 0 0 - - - 0;
#X obj 373 114 mod 16;
#X obj 373 352 t f f f f;
#X obj 394 242 spigot, f 10;
#X obj 494 195 tgl 23 0 empty empty empty 0 -12 0 16 #fcfcfc #000000 #000000 0 1;
#X msg 466 625 Y_0;
#X connect 2 0 12 1;
#X connect 3 0 15 1;
#X connect 6 0 12 0;
#X connect 7 0 0 2;
#X connect 8 0 7 0;
#X connect 10 0 9 2;
#X connect 11 0 16 1;
#X connect 12 0 20 0;
#X connect 13 0 19 0;
#X connect 14 0 11 0;
#X connect 15 0 0 0;
#X connect 16 0 9 0;
#X connect 17 0 8 0;
#X connect 18 0 31 0;
#X connect 19 0 3 0;
#X connect 20 1 0 1;
#X connect 20 3 9 1;
#X connect 21 0 22 0;
#X connect 22 0 27 0;
#X connect 22 1 23 0;
#X connect 23 0 21 1;
#X connect 24 0 21 1;
#X connect 25 0 21 0;
#X connect 26 0 27 1;
#X connect 27 0 29 0;
#X connect 28 0 15 0;
#X connect 28 1 16 0;
#X connect 29 0 28 0;
#X connect 30 0 29 1;
#X connect 31 0 10 0;
#X restore 23 797 pd generate_data;
#X f 18;
#X obj 23 764 tgl 23 0 empty empty empty 0 -12 0 16 #fcfcfc #000000 #000000 0 1;
#X obj 93 590 vsl 23 196 0 90 0 0 empty empty X 0 -9 0 16 #fcfcfc #000000 #000000 0 1;
#X obj 184 582 vsl 23 196 0 90 0 0 empty empty Y 0 -9 0 16 #fcfcfc #000000 #000000 0 1;
#X floatatom 230 756 10 0 0 0 - - - 0;
#X floatatom 119 768 5 0 0 0 - - - 0;
#X floatatom 213 583 5 0 0 0 - - - 0;
#X floatatom 120 592 5 0 0 0 - - - 0;
#X obj 34 314 vsl 23 196 0 1000 0 0 empty empty range 0 -9 0 16 #fcfcfc #000000 #000000 0 1;
#X obj 247 313 vsl 23 196 0 1 0 0 empty empty amp\ y_hat 0 -9 0 16 #fcfcfc #000000 #000000 0 1;
#N canvas 2799 735 637 318 scopes 1;
#N canvas 0 50 450 250 (subpatch) 0;
#X array \$0_X 4 float 3;
#A 0 0.149847 0.846236 -0.242863 0.228578;
#X coords 0 1 4 -1 200 140 1;
#X restore 42 36 graph;
#N canvas 0 50 450 250 (subpatch) 0;
#X array \$0_Y_0 4 float 3;
#A 0 -0.357143 0.0571426 0.614283 -0.114287;
#X coords 0 1 4 -1 200 140 1 0 0;
#X restore 281 35 graph;
#X restore 17 249 pd scopes;
#X obj 231 707 r \$0_batch_angle;
#X obj 24 107 bng 23 250 50 0 empty empty empty 0 -12 0 16 #fcfcfc #000000 #000000;
#X obj 24 135 t b b;
#X obj 627 16 r \$0_m_b;
#X msg 689 72 bang;
#X obj 689 44 r \$0_init;
#X obj 627 103 nn.array_cycle X;
#X obj 752 75 r \$0_ns;
#X obj 995 75 r \$0_ns;
#X obj 1235 75 r \$0_ns;
#X obj 627 131 f;
#X obj 862 67 f;
#X obj 862 131 f;
#X obj 1102 12 f;
#X obj 1102 136 f;
#X obj 862 103 nn.array_read X;
#X obj 1102 103 nn.array_read X;
#X obj 1475 75 r \$0_ns;
#X obj 1342 12 f;
#X obj 1342 136 f;
#X obj 1342 103 nn.array_read X;
#X obj 603 931 nnb.neuron_4 wL-1_0 bL-1_0 aL-1_0 zL-1_0 tanh;
#X obj 974 931 nnb.neuron_4 wL-1_1 bL-1_1 aL-1_1 zL-1_1 tanh;
#X obj 1349 931 nnb.neuron_4 wL-1_2 bL-1_2 aL-1_2 zL-1_2 tanh;
#X obj 1748 931 nnb.neuron_4 wL-1_3 bL-1_3 aL-1_3 zL-1_3 tanh;
#X obj 561 321 t f f f f;
#X obj 946 321 t f f f f;
#X obj 1331 321 t f f f f;
#X obj 1715 321 t f f f f;
#X obj 752 136 t f f f f;
#X obj 995 136 t f f f f;
#X obj 1235 137 t f f f f;
#X obj 1475 137 t f f f f;
#X obj 1639 316 f;
#X obj 2121 39 r \$0_ns;
#X obj 1179 1121 nnb.neuron_4 wL-0_0 bL-0_0 aL-0_0 zL-0_0 linear;
#X obj 1179 1149 t f f;
#X obj 1216 1186 s \$0_m_i;
#X obj 1179 1227 sel 3;
#X obj 1179 1255 s \$0_bp_init;
#X obj 2248 39 r \$0_bp_init;
#X msg 2293 118 layer_number 0;
#X obj 2248 250 nnb.backstep, f 27;
#X obj 2248 85 nnb.outer_dz;
#X msg 2317 151 layer_dims 1 4;
#X msg 2355 215 skip_dz 1;
#X obj 2248 420 nnb.backstep, f 27;
#X msg 2338 354 activation tanh;
#X msg 2293 288 layer_number 1;
#X msg 2317 321 layer_dims 4 4;
#X msg 2338 184 activation linear;
#X obj 2248 930 nnb.backstep, f 27;
#X msg 2338 864 activation tanh;
#X msg 2317 831 layer_dims 4 4;
#X obj 2603 534 nn.update wL-2_0 dwL-2_0;
#X obj 2603 564 nn.update wL-2_1 dwL-2_1;
#X obj 2603 662 nn.update bL-2_0 dbL-2_0;
#X obj 2603 690 nn.update bL-2_1 dbL-2_1;
#X obj 2603 718 nn.update bL-2_2 dbL-2_2;
#X obj 2603 594 nn.update wL-2_2 dwL-2_2;
#X obj 2946 849 nn.update wL-3_0 dwL-3_0;
#X obj 2946 879 nn.update wL-3_1 dwL-3_1;
#X obj 2946 909 nn.update wL-3_2 dwL-3_2;
#X obj 2946 977 nn.update bL-3_0 dbL-3_0;
#X obj 2946 1005 nn.update bL-3_1 dbL-3_1;
#X obj 2946 1033 nn.update bL-3_2 dbL-3_2;
#X obj 2603 11 nn.update wL-4_0 dwL-4_0;
#X obj 2603 41 nn.update wL-4_1 dwL-4_1;
#X obj 2603 71 nn.update wL-4_2 dwL-4_2;
#X obj 2603 139 nn.update bL-4_0 dbL-4_0;
#X obj 2604 166 nn.update bL-4_1 dbL-4_1;
#X obj 2604 194 nn.update bL-4_2 dbL-4_2;
#X obj 2603 101 nn.update wL-4_3 dwL-4_3;
#X obj 2604 224 nn.update bL-4_3 dbL-4_3;
#X obj 2946 939 nn.update wL-3_3 dwL-3_3;
#X obj 2946 1063 nn.update bL-3_3 dbL-3_3;
#X obj 2603 624 nn.update wL-2_3 dwL-2_3;
#X obj 2603 748 nn.update bL-2_3 dbL-2_3;
#X obj 2604 1069 nn.update wL-0_0 dwL-0_0;
#X obj 2604 1098 nn.update bL-0_0 dbL-0_0;
#X obj 2604 809 nn.update wL-1_0 dwL-1_0;
#X obj 2604 839 nn.update wL-1_1 dwL-1_1;
#X obj 2604 869 nn.update wL-1_2 dwL-1_2;
#X obj 2604 899 nn.update wL-1_3 dwL-1_3;
#X obj 2604 937 nn.update bL-1_0 dbL-1_0;
#X obj 2604 965 nn.update bL-1_1 dbL-1_1;
#X obj 2604 993 nn.update bL-1_2 dbL-1_2;
#X obj 2604 1023 nn.update bL-1_3 dbL-1_3;
#X obj 2532 12 r \$0_ns;
#X obj 1291 1187 r \$0_batch_size;
#X obj 1291 1215 - 1;
#X obj 485 281 nnb.neuron_4 wL-2_0 bL-2_0 aL-2_0 zL-2_0 tanh;
#X obj 871 281 nnb.neuron_4 wL-2_1 bL-2_1 aL-2_1 zL-2_1 tanh;
#X obj 1255 281 nnb.neuron_4 wL-2_2 bL-2_2 aL-2_2 zL-2_2 tanh;
#X obj 1639 281 nnb.neuron_4 wL-2_3 bL-2_3 aL-2_3 zL-2_3 tanh;
#X obj 2873 474 r \$0_ns;
#X obj 2882 370 r \$0_alpha;
#X msg 2294 798 layer_number 2;
#X connect 1 0 3 0;
#X connect 1 1 3 2;
#X connect 2 0 1 0;
#X connect 4 0 1 0;
#X connect 5 0 6 0;
#X connect 6 0 8 0;
#X connect 6 1 10 0;
#X connect 7 0 8 2;
#X connect 8 0 9 0;
#X connect 10 0 7 0;
#X connect 11 0 12 0;
#X connect 13 0 11 0;
#X connect 15 0 0 0;
#X connect 17 0 16 0;
#X connect 18 0 16 1;
#X connect 19 0 16 2;
#X connect 21 0 20 0;
#X connect 22 0 23 0;
#X connect 25 0 24 1;
#X connect 27 0 26 0;
#X connect 28 0 26 1;
#X connect 28 0 31 0;
#X connect 29 0 30 0;
#X connect 29 0 26 2;
#X connect 32 0 29 0;
#X connect 33 0 28 0;
#X connect 34 0 24 0;
#X connect 35 0 24 2;
#X connect 38 0 39 0;
#X connect 39 0 15 0;
#X connect 39 1 21 0;
#X connect 40 0 43 0;
#X connect 41 0 43 1;
#X connect 42 0 41 0;
#X connect 43 0 47 0;
#X connect 43 1 66 0;
#X connect 44 0 43 2;
#X connect 45 0 52 1;
#X connect 46 0 53 1;
#X connect 47 0 48 0;
#X connect 48 0 52 0;
#X connect 49 0 50 0;
#X connect 50 0 53 0;
#X connect 51 0 55 0;
#X connect 52 0 49 0;
#X connect 52 1 67 0;
#X connect 53 0 51 0;
#X connect 53 1 68 0;
#X connect 54 0 57 1;
#X connect 55 0 57 0;
#X connect 56 0 128 0;
#X connect 57 0 56 0;
#X connect 57 1 69 0;
#X connect 58 0 59 0;
#X connect 58 1 72 1;
#X connect 59 0 60 0;
#X connect 59 1 72 2;
#X connect 60 0 61 0;
#X connect 60 1 72 3;
#X connect 61 0 72 0;
#X connect 61 1 72 4;
#X connect 62 0 58 1;
#X connect 62 1 59 1;
#X connect 62 2 60 1;
#X connect 62 3 61 1;
#X connect 63 0 58 2;
#X connect 63 1 59 2;
#X connect 63 2 60 2;
#X connect 63 3 61 2;
#X connect 64 0 58 3;
#X connect 64 1 59 3;
#X connect 64 2 60 3;
#X connect 64 3 61 3;
#X connect 65 0 58 4;
#X connect 65 1 59 4;
#X connect 65 2 60 4;
#X connect 65 3 61 4;
#X connect 66 0 128 1;
#X connect 66 1 129 1;
#X connect 66 2 130 1;
#X connect 66 3 131 1;
#X connect 67 0 128 2;
#X connect 67 1 129 2;
#X connect 67 2 130 2;
#X connect 67 3 131 2;
#X connect 68 0 128 3;
#X connect 68 1 129 3;
#X connect 68 2 130 3;
#X connect 68 3 131 3;
#X connect 69 0 128 4;
#X connect 69 1 129 4;
#X connect 69 2 130 4;
#X connect 69 3 131 4;
#X connect 70 0 58 0;
#X connect 71 0 61 5;
#X connect 71 0 60 5;
#X connect 71 0 59 5;
#X connect 71 0 58 5;
#X connect 71 0 72 5;
#X connect 71 0 128 5;
#X connect 71 0 129 5;
#X connect 71 0 130 5;
#X connect 71 0 131 5;
#X connect 72 0 73 0;
#X connect 73 0 75 0;
#X connect 73 1 74 0;
#X connect 75 0 76 0;
#X connect 77 0 80 0;
#X connect 78 0 79 0;
#X connect 79 0 83 0;
#X connect 80 0 79 0;
#X connect 81 0 79 0;
#X connect 82 0 79 0;
#X connect 83 0 88 0;
#X connect 84 0 83 0;
#X connect 85 0 83 0;
#X connect 86 0 83 0;
#X connect 87 0 79 0;
#X connect 88 0 91 0;
#X connect 89 0 88 0;
#X connect 90 0 88 0;
#X connect 91 0 92 0;
#X connect 92 0 96 0;
#X connect 93 0 94 0;
#X connect 94 0 95 0;
#X connect 95 0 114 0;
#X connect 96 0 113 0;
#X connect 97 0 98 0;
#X connect 98 0 99 0;
#X connect 99 0 111 0;
#X connect 100 0 101 0;
#X connect 101 0 102 0;
#X connect 102 0 112 0;
#X connect 103 0 104 0;
#X connect 104 0 105 0;
#X connect 105 0 109 0;
#X connect 106 0 107 0;
#X connect 107 0 108 0;
#X connect 108 0 110 0;
#X connect 109 0 106 0;
#X connect 111 0 100 0;
#X connect 113 0 93 0;
#X connect 114 0 117 0;
#X connect 117 0 118 0;
#X connect 118 0 119 0;
#X connect 119 0 120 0;
#X connect 120 0 121 0;
#X connect 121 0 122 0;
#X connect 122 0 123 0;
#X connect 123 0 124 0;
#X connect 124 0 115 0;
#X connect 125 0 80 1;
#X connect 125 0 79 1;
#X connect 125 0 83 1;
#X connect 125 0 88 1;
#X connect 126 0 127 0;
#X connect 127 0 75 1;
#X connect 128 0 129 0;
#X connect 128 1 62 0;
#X connect 129 0 130 0;
#X connect 129 1 63 0;
#X connect 130 0 131 0;
#X connect 130 1 64 0;
#X connect 131 0 70 0;
#X connect 131 1 65 0;
#X connect 132 0 91 2;
#X connect 132 0 124 2;
#X connect 132 0 123 2;
#X connect 132 0 122 2;
#X connect 132 0 121 2;
#X connect 132 0 120 2;
#X connect 132 0 119 2;
#X connect 132 0 118 2;
#X connect 132 0 117 2;
#X connect 132 0 116 2;
#X connect 132 0 115 2;
#X connect 132 0 114 2;
#X connect 132 0 113 2;
#X connect 132 0 96 2;
#X connect 132 0 95 2;
#X connect 132 0 94 2;
#X connect 132 0 93 2;
#X connect 132 0 92 2;
#X connect 133 0 91 1;
#X connect 133 0 124 1;
#X connect 133 0 123 1;
#X connect 133 0 122 1;
#X connect 133 0 121 1;
#X connect 133 0 120 1;
#X connect 133 0 119 1;
#X connect 133 0 118 1;
#X connect 133 0 117 1;
#X connect 133 0 116 1;
#X connect 133 0 115 1;
#X connect 133 0 114 1;
#X connect 133 0 113 1;
#X connect 133 0 96 1;
#X connect 133 0 95 1;
#X connect 133 0 94 1;
#X connect 133 0 93 1;
#X connect 133 0 92 1;
#X connect 134 0 88 0;
